XOPQmaxYOPQmax.ufo
<glyph name="exclam" format="1">
  <advance width="788"/>
  <unicode hex="0021"/>
  <outline>
    <contour>
      <point x="234" y="375" type="line"/>
      <point x="554" y="375" type="line"/>
      <point x="570" y="1456" type="line"/>
      <point x="216" y="1456" type="line"/>
    </contour>
    <contour>
      <point x="189" y="149" type="qcurve" smooth="yes"/>
      <point x="189" y="78"/>
      <point x="296" y="-20"/>
      <point x="393" y="-20" type="qcurve" smooth="yes"/>
      <point x="488" y="-20"/>
      <point x="599" y="78"/>
      <point x="599" y="149" type="qcurve" smooth="yes"/>
      <point x="599" y="221"/>
      <point x="488" y="320"/>
      <point x="393" y="320" type="qcurve" smooth="yes"/>
      <point x="295" y="320"/>
      <point x="189" y="221"/>
    </contour>
  </outline>
</glyph>
<glyph name="quotedbl" format="1">
  <advance width="1009"/>
  <unicode hex="0022"/>
  <outline>
    <contour>
      <point x="120" y="841" type="line"/>
      <point x="415" y="841" type="line"/>
      <point x="437" y="1205" type="line"/>
      <point x="437" y="1405" type="line"/>
      <point x="100" y="1405" type="line"/>
      <point x="100" y="1198" type="line"/>
    </contour>
    <contour>
      <point x="591" y="841" type="line"/>
      <point x="886" y="841" type="line"/>
      <point x="909" y="1205" type="line"/>
      <point x="909" y="1405" type="line"/>
      <point x="571" y="1405" type="line"/>
      <point x="571" y="1204" type="line"/>
    </contour>
  </outline>
</glyph>
<glyph name="numbersign" format="1">
  <advance width="1913"/>
  <unicode hex="0023"/>
  <outline>
    <contour>
      <point x="252" y="-30" type="line"/>
      <point x="527" y="-30" type="line"/>
      <point x="1070" y="1476" type="line"/>
      <point x="794" y="1476" type="line"/>
    </contour>
    <contour>
      <point x="846" y="-30" type="line"/>
      <point x="1121" y="-30" type="line"/>
      <point x="1664" y="1476" type="line"/>
      <point x="1388" y="1476" type="line"/>
    </contour>
    <contour>
      <point x="153" y="904" type="line"/>
      <point x="1849" y="904" type="line"/>
      <point x="1849" y="1042" type="line"/>
      <point x="153" y="1042" type="line"/>
    </contour>
    <contour>
      <point x="64" y="413" type="line"/>
      <point x="1761" y="413" type="line"/>
      <point x="1761" y="551" type="line"/>
      <point x="64" y="551" type="line"/>
    </contour>
  </outline>
</glyph>
<glyph name="dollar" format="1">
  <advance width="1453"/>
  <unicode hex="0024"/>
  <outline>
    <contour>
      <point x="77" y="434" type="line" smooth="yes"/>
      <point x="77" y="215"/>
      <point x="452" y="0"/>
      <point x="736" y="0" type="qcurve" smooth="yes"/>
      <point x="1017" y="0"/>
      <point x="1368" y="226"/>
      <point x="1368" y="423" type="qcurve" smooth="yes"/>
      <point x="1368" y="617"/>
      <point x="1069" y="822"/>
      <point x="780" y="882" type="qcurve" smooth="yes"/>
      <point x="594" y="920"/>
      <point x="448" y="1002"/>
      <point x="448" y="1048" type="qcurve" smooth="yes"/>
      <point x="448" y="1106"/>
      <point x="565" y="1185"/>
      <point x="713" y="1185" type="qcurve" smooth="yes"/>
      <point x="866" y="1185"/>
      <point x="1000" y="1099"/>
      <point x="1000" y="1028" type="qcurve" smooth="yes"/>
      <point x="1000" y="952" type="line"/>
      <point x="1340" y="952" type="line"/>
      <point x="1340" y="1029" type="line" smooth="yes"/>
      <point x="1340" y="1202"/>
      <point x="1021" y="1456"/>
      <point x="722" y="1456" type="qcurve" smooth="yes"/>
      <point x="453" y="1456"/>
      <point x="113" y="1215"/>
      <point x="113" y="1037" type="qcurve" smooth="yes"/>
      <point x="113" y="861"/>
      <point x="394" y="667"/>
      <point x="673" y="607" type="qcurve" smooth="yes"/>
      <point x="893" y="559"/>
      <point x="1033" y="474"/>
      <point x="1033" y="412" type="qcurve" smooth="yes"/>
      <point x="1033" y="353"/>
      <point x="884" y="266"/>
      <point x="724" y="266" type="qcurve" smooth="yes"/>
      <point x="573" y="266"/>
      <point x="416" y="356"/>
      <point x="416" y="439" type="qcurve" smooth="yes"/>
      <point x="416" y="508" type="line"/>
      <point x="77" y="508" type="line"/>
    </contour>
    <contour>
      <point x="589" y="679" type="line"/>
      <point x="878" y="679" type="line"/>
      <point x="878" y="1555" type="line"/>
      <point x="576" y="1555" type="line"/>
      <point x="576" y="1243" type="line"/>
      <point x="589" y="1242" type="line"/>
    </contour>
    <contour>
      <point x="576" y="-144" type="line"/>
      <point x="878" y="-144" type="line"/>
      <point x="878" y="218" type="line"/>
      <point x="866" y="218" type="line"/>
      <point x="866" y="779" type="line"/>
      <point x="576" y="779" type="line"/>
    </contour>
  </outline>
</glyph>
<glyph name="percent" format="1">
  <advance width="2196"/>
  <unicode hex="0025"/>
  <outline>
    <contour>
      <point x="64" y="924" type="line" smooth="yes"/>
      <point x="64" y="782"/>
      <point x="316" y="584"/>
      <point x="521" y="584" type="qcurve" smooth="yes"/>
      <point x="725" y="584"/>
      <point x="974" y="782"/>
      <point x="974" y="924" type="qcurve" smooth="yes"/>
      <point x="974" y="1088" type="line" smooth="yes"/>
      <point x="974" y="1231"/>
      <point x="725" y="1430"/>
      <point x="518" y="1430" type="qcurve" smooth="yes"/>
      <point x="315" y="1430"/>
      <point x="64" y="1231"/>
      <point x="64" y="1088" type="qcurve" smooth="yes"/>
    </contour>
    <contour>
      <point x="395" y="929" type="qcurve" smooth="yes"/>
      <point x="395" y="1083" type="line" smooth="yes"/>
      <point x="395" y="1107"/>
      <point x="444" y="1158"/>
      <point x="518" y="1158" type="qcurve" smooth="yes"/>
      <point x="592" y="1158"/>
      <point x="643" y="1107"/>
      <point x="643" y="1083" type="qcurve" smooth="yes"/>
      <point x="643" y="929" type="line" smooth="yes"/>
      <point x="643" y="906"/>
      <point x="595" y="856"/>
      <point x="521" y="856" type="qcurve" smooth="yes"/>
      <point x="445" y="856"/>
      <point x="395" y="906"/>
    </contour>
    <contour>
      <point x="1790" y="1321" type="line"/>
      <point x="1537" y="1450" type="line"/>
      <point x="397" y="68" type="line"/>
      <point x="650" y="-61" type="line"/>
    </contour>
    <contour>
      <point x="1223" y="321" type="line" smooth="yes"/>
      <point x="1223" y="178"/>
      <point x="1475" y="-20"/>
      <point x="1679" y="-20" type="qcurve" smooth="yes"/>
      <point x="1884" y="-20"/>
      <point x="2132" y="178"/>
      <point x="2132" y="321" type="qcurve" smooth="yes"/>
      <point x="2132" y="484" type="line" smooth="yes"/>
      <point x="2132" y="627"/>
      <point x="1884" y="827"/>
      <point x="1677" y="827" type="qcurve" smooth="yes"/>
      <point x="1474" y="827"/>
      <point x="1223" y="627"/>
      <point x="1223" y="484" type="qcurve" smooth="yes"/>
    </contour>
    <contour>
      <point x="1554" y="325" type="qcurve" smooth="yes"/>
      <point x="1554" y="480" type="line" smooth="yes"/>
      <point x="1554" y="503"/>
      <point x="1603" y="554"/>
      <point x="1677" y="554" type="qcurve" smooth="yes"/>
      <point x="1751" y="554"/>
      <point x="1801" y="503"/>
      <point x="1801" y="480" type="qcurve" smooth="yes"/>
      <point x="1801" y="325" type="line" smooth="yes"/>
      <point x="1801" y="302"/>
      <point x="1754" y="253"/>
      <point x="1679" y="253" type="qcurve" smooth="yes"/>
      <point x="1604" y="253"/>
      <point x="1554" y="303"/>
    </contour>
  </outline>
</glyph>
<glyph name="ampersand" format="1">
  <advance width="1583"/>
  <unicode hex="0026"/>
  <outline>
    <contour>
      <point x="102" y="421" type="qcurve" smooth="yes"/>
      <point x="102" y="227"/>
      <point x="440" y="-18"/>
      <point x="716" y="-18" type="qcurve" smooth="yes"/>
      <point x="852" y="-18"/>
      <point x="1137" y="65"/>
      <point x="1234" y="149" type="qcurve" smooth="yes"/>
      <point x="1253" y="164"/>
      <point x="1264" y="186"/>
      <point x="1266" y="185" type="qcurve"/>
      <point x="1384" y="279"/>
      <point x="1494" y="527"/>
      <point x="1494" y="740" type="qcurve"/>
      <point x="1173" y="740" type="line"/>
      <point x="1173" y="484"/>
      <point x="886" y="247"/>
      <point x="716" y="247" type="qcurve" smooth="yes"/>
      <point x="574" y="247"/>
      <point x="445" y="352"/>
      <point x="445" y="421" type="qcurve" smooth="yes"/>
      <point x="445" y="434"/>
      <point x="493" y="532"/>
      <point x="606" y="597" type="qcurve" smooth="yes"/>
      <point x="945" y="793" type="line" smooth="yes"/>
      <point x="1051" y="854"/>
      <point x="1200" y="1011"/>
      <point x="1200" y="1131" type="qcurve" smooth="yes"/>
      <point x="1200" y="1272"/>
      <point x="943" y="1474"/>
      <point x="731" y="1474" type="qcurve" smooth="yes"/>
      <point x="517" y="1474"/>
      <point x="241" y="1273"/>
      <point x="241" y="1089" type="qcurve" smooth="yes"/>
      <point x="241" y="963"/>
      <point x="427" y="760"/>
      <point x="561" y="638" type="qcurve" smooth="yes"/>
      <point x="1242" y="0" type="line"/>
      <point x="1674" y="0" type="line"/>
      <point x="771" y="860" type="line" smooth="yes"/>
      <point x="685" y="936"/>
      <point x="585" y="1055"/>
      <point x="585" y="1094" type="qcurve" smooth="yes"/>
      <point x="585" y="1141"/>
      <point x="658" y="1210"/>
      <point x="730" y="1210" type="qcurve" smooth="yes"/>
      <point x="804" y="1210"/>
      <point x="873" y="1156"/>
      <point x="873" y="1131" type="qcurve" smooth="yes"/>
      <point x="873" y="1088"/>
      <point x="811" y="1030"/>
      <point x="743" y="991" type="qcurve" smooth="yes"/>
      <point x="491" y="853" type="line" smooth="yes"/>
      <point x="329" y="765"/>
      <point x="102" y="575"/>
    </contour>
  </outline>
</glyph>
<glyph name="quotesingle" format="1">
  <advance width="562"/>
  <unicode hex="0027"/>
  <outline>
    <contour>
      <point x="134" y="841" type="line"/>
      <point x="425" y="841" type="line"/>
      <point x="462" y="1205" type="line"/>
      <point x="462" y="1405" type="line"/>
      <point x="100" y="1405" type="line"/>
      <point x="100" y="1198" type="line"/>
    </contour>
  </outline>
</glyph>
<glyph name="parenleft" format="1">
  <advance width="919"/>
  <unicode hex="0028"/>
  <outline>
    <contour>
      <point x="883" y="-487" type="qcurve"/>
      <point x="883" y="-280" type="line"/>
      <point x="734" y="-192"/>
      <point x="479" y="144"/>
      <point x="479" y="520" type="qcurve" smooth="yes"/>
      <point x="479" y="544" type="line" smooth="yes"/>
      <point x="479" y="912"/>
      <point x="734" y="1252"/>
      <point x="883" y="1332" type="qcurve"/>
      <point x="883" y="1542" type="line"/>
      <point x="606" y="1411"/>
      <point x="124" y="959"/>
      <point x="124" y="542" type="qcurve" smooth="yes"/>
      <point x="124" y="532" type="line" smooth="yes"/>
      <point x="124" y="113"/>
      <point x="606" y="-356"/>
    </contour>
  </outline>
</glyph>
<glyph name="parenright" format="1">
  <advance width="919"/>
  <unicode hex="0029"/>
  <outline>
    <contour>
      <point x="124" y="-487" type="line"/>
      <point x="401" y="-356"/>
      <point x="883" y="113"/>
      <point x="883" y="532" type="qcurve" smooth="yes"/>
      <point x="883" y="542" type="line" smooth="yes"/>
      <point x="883" y="959"/>
      <point x="401" y="1411"/>
      <point x="124" y="1542" type="qcurve"/>
      <point x="124" y="1332" type="line"/>
      <point x="273" y="1252"/>
      <point x="528" y="912"/>
      <point x="528" y="544" type="qcurve" smooth="yes"/>
      <point x="528" y="520" type="line" smooth="yes"/>
      <point x="528" y="144"/>
      <point x="273" y="-192"/>
      <point x="124" y="-280" type="qcurve"/>
    </contour>
  </outline>
</glyph>
<glyph name="asterisk" format="1">
  <advance width="1366"/>
  <unicode hex="002A"/>
  <outline>
    <contour>
      <point x="30" y="932" type="line"/>
      <point x="411" y="873" type="line"/>
      <point x="138" y="648" type="line"/>
      <point x="454" y="475" type="line"/>
      <point x="659" y="735" type="line"/>
      <point x="873" y="468" type="line"/>
      <point x="1185" y="644" type="line"/>
      <point x="917" y="864" type="line"/>
      <point x="1304" y="922" type="line"/>
      <point x="1187" y="1225" type="line"/>
      <point x="816" y="1108" type="line"/>
      <point x="857" y="1423" type="line"/>
      <point x="486" y="1423" type="line"/>
      <point x="523" y="1112" type="line"/>
      <point x="153" y="1231" type="line"/>
    </contour>
  </outline>
</glyph>
<glyph name="plus" format="1">
  <advance width="1520"/>
  <unicode hex="002B"/>
  <outline>
    <contour>
      <point x="86" y="516" type="line"/>
      <point x="1434" y="516" type="line"/>
      <point x="1434" y="794" type="line"/>
      <point x="86" y="794" type="line"/>
    </contour>
    <contour>
      <point x="589" y="128" type="line"/>
      <point x="930" y="128" type="line"/>
      <point x="930" y="1187" type="line"/>
      <point x="589" y="1187" type="line"/>
    </contour>
  </outline>
</glyph>
<glyph name="comma" format="1">
  <advance width="745"/>
  <unicode hex="002C"/>
  <outline>
    <contour>
      <point x="47" y="-141" type="qcurve"/>
      <point x="273" y="-261" type="line"/>
      <point x="418" y="-173"/>
      <point x="544" y="26"/>
      <point x="544" y="128" type="qcurve" smooth="yes"/>
      <point x="544" y="325" type="line"/>
      <point x="206" y="325" type="line"/>
      <point x="206" y="126" type="line" smooth="yes"/>
      <point x="206" y="76"/>
      <point x="149" y="-30"/>
    </contour>
  </outline>
</glyph>
<glyph name="hyphen" format="1">
  <advance width="892"/>
  <unicode hex="002D"/>
  <outline>
    <contour>
      <point x="38" y="474" type="line"/>
      <point x="854" y="474" type="line"/>
      <point x="854" y="758" type="line"/>
      <point x="38" y="758" type="line"/>
    </contour>
  </outline>
</glyph>
<glyph name="period" format="1">
  <advance width="755"/>
  <unicode hex="002E"/>
  <outline>
    <contour>
      <point x="161" y="155" type="qcurve" smooth="yes"/>
      <point x="161" y="78"/>
      <point x="280" y="-19"/>
      <point x="378" y="-19" type="qcurve" smooth="yes"/>
      <point x="475" y="-19"/>
      <point x="594" y="78"/>
      <point x="594" y="155" type="qcurve" smooth="yes"/>
      <point x="594" y="233"/>
      <point x="475" y="329"/>
      <point x="378" y="329" type="qcurve" smooth="yes"/>
      <point x="280" y="329"/>
      <point x="161" y="233"/>
    </contour>
  </outline>
</glyph>
<glyph name="slash" format="1">
  <advance width="818"/>
  <unicode hex="002F"/>
  <outline>
    <contour>
      <point x="-102" y="-125" type="line"/>
      <point x="209" y="-125" type="line"/>
      <point x="920" y="1456" type="line"/>
      <point x="610" y="1456" type="line"/>
    </contour>
  </outline>
</glyph>
<glyph name="zero" format="1">
  <advance width="1496"/>
  <unicode hex="0030"/>
  <outline>
    <contour>
      <point x="110" y="675" type="line" smooth="yes"/>
      <point x="110" y="351"/>
      <point x="440" y="-30"/>
      <point x="749" y="-30" type="qcurve" smooth="yes"/>
      <point x="1056" y="-30"/>
      <point x="1386" y="351"/>
      <point x="1386" y="675" type="qcurve" smooth="yes"/>
      <point x="1386" y="790" type="line" smooth="yes"/>
      <point x="1386" y="1098"/>
      <point x="1056" y="1479"/>
      <point x="747" y="1479" type="qcurve" smooth="yes"/>
      <point x="440" y="1479"/>
      <point x="110" y="1098"/>
      <point x="110" y="790" type="qcurve" smooth="yes"/>
    </contour>
    <contour>
      <point x="474" y="717" type="qcurve" smooth="yes"/>
      <point x="474" y="755" type="line" smooth="yes"/>
      <point x="474" y="1016"/>
      <point x="602" y="1208"/>
      <point x="747" y="1208" type="qcurve" smooth="yes"/>
      <point x="892" y="1208"/>
      <point x="1022" y="1020"/>
      <point x="1022" y="755" type="qcurve" smooth="yes"/>
      <point x="1022" y="717" type="line" smooth="yes"/>
      <point x="1022" y="414"/>
      <point x="895" y="240"/>
      <point x="749" y="240" type="qcurve" smooth="yes"/>
      <point x="603" y="240"/>
      <point x="474" y="415"/>
    </contour>
  </outline>
</glyph>
<glyph name="one" format="1">
  <advance width="1378"/>
  <unicode hex="0031"/>
  <outline>
    <contour>
      <point x="602" y="0" type="line"/>
      <point x="951" y="0" type="line"/>
      <point x="951" y="1476" type="line"/>
      <point x="779" y="1476" type="line"/>
      <point x="171" y="1280" type="line"/>
      <point x="171" y="1006" type="line"/>
      <point x="602" y="1146" type="line"/>
    </contour>
  </outline>
</glyph>
<glyph name="four" format="1">
  <advance width="1382"/>
  <unicode hex="0034"/>
  <outline>
    <contour>
      <point x="785" y="0" type="line"/>
      <point x="1119" y="0" type="line"/>
      <point x="1119" y="1456" type="line"/>
      <point x="743" y="1456" type="line"/>
      <point x="53" y="467" type="line"/>
      <point x="53" y="318" type="line"/>
      <point x="1335" y="318" type="line"/>
      <point x="1335" y="583" type="line"/>
      <point x="958" y="583" type="line"/>
      <point x="926" y="583" type="line"/>
      <point x="467" y="583" type="line"/>
      <point x="781" y="1039" type="line"/>
      <point x="785" y="1039" type="line"/>
      <point x="785" y="445" type="line"/>
      <point x="785" y="429" type="line"/>
    </contour>
  </outline>
</glyph>
<glyph name="seven" format="1">
  <advance width="1256"/>
  <unicode hex="0037"/>
  <outline>
    <contour>
      <point x="239" y="0" type="line"/>
      <point x="590" y="0" type="line"/>
      <point x="1152" y="1303" type="line"/>
      <point x="1152" y="1456" type="line"/>
      <point x="78" y="1456" type="line"/>
      <point x="78" y="1191" type="line"/>
      <point x="752" y="1191" type="line"/>
    </contour>
  </outline>
</glyph>
<glyph name="colon" format="1">
  <advance width="772"/>
  <unicode hex="003A"/>
  <outline>
    <contour>
      <point x="176" y="150" type="qcurve" smooth="yes"/>
      <point x="176" y="75"/>
      <point x="291" y="-19"/>
      <point x="385" y="-19" type="qcurve" smooth="yes"/>
      <point x="479" y="-19"/>
      <point x="595" y="75"/>
      <point x="595" y="150" type="qcurve" smooth="yes"/>
      <point x="595" y="226"/>
      <point x="479" y="321"/>
      <point x="385" y="321" type="qcurve" smooth="yes"/>
      <point x="291" y="321"/>
      <point x="176" y="226"/>
    </contour>
    <contour>
      <point x="177" y="896" type="qcurve" smooth="yes"/>
      <point x="177" y="820"/>
      <point x="292" y="726"/>
      <point x="386" y="726" type="qcurve" smooth="yes"/>
      <point x="480" y="726"/>
      <point x="596" y="820"/>
      <point x="596" y="896" type="qcurve" smooth="yes"/>
      <point x="596" y="972"/>
      <point x="480" y="1066"/>
      <point x="386" y="1066" type="qcurve" smooth="yes"/>
      <point x="292" y="1066"/>
      <point x="177" y="972"/>
    </contour>
  </outline>
</glyph>
<glyph name="semicolon" format="1">
  <advance width="770"/>
  <unicode hex="003B"/>
  <outline>
    <contour>
      <point x="174" y="896" type="qcurve" smooth="yes"/>
      <point x="174" y="820"/>
      <point x="290" y="726"/>
      <point x="384" y="726" type="qcurve" smooth="yes"/>
      <point x="478" y="726"/>
      <point x="594" y="820"/>
      <point x="594" y="896" type="qcurve" smooth="yes"/>
      <point x="594" y="972"/>
      <point x="478" y="1066"/>
      <point x="384" y="1066" type="qcurve" smooth="yes"/>
      <point x="290" y="1066"/>
      <point x="174" y="972"/>
    </contour>
    <contour>
      <point x="67" y="-141" type="qcurve"/>
      <point x="293" y="-261" type="line"/>
      <point x="438" y="-173"/>
      <point x="563" y="26"/>
      <point x="563" y="128" type="qcurve" smooth="yes"/>
      <point x="563" y="325" type="line"/>
      <point x="226" y="325" type="line"/>
      <point x="226" y="126" type="line" smooth="yes"/>
      <point x="226" y="76"/>
      <point x="169" y="-30"/>
    </contour>
  </outline>
</glyph>
<glyph name="less" format="1">
  <advance width="1477"/>
  <unicode hex="003C"/>
  <outline>
    <contour>
      <point x="1297" y="150" type="line"/>
      <point x="1297" y="448" type="line"/>
      <point x="672" y="630" type="line"/>
      <point x="1297" y="815" type="line"/>
      <point x="1297" y="1114" type="line"/>
      <point x="172" y="742" type="line"/>
      <point x="172" y="523" type="line"/>
    </contour>
  </outline>
</glyph>
<glyph name="equal" format="1">
  <advance width="1488"/>
  <unicode hex="003D"/>
  <outline>
    <contour>
      <point x="153" y="688" type="line"/>
      <point x="1335" y="688" type="line"/>
      <point x="1335" y="967" type="line"/>
      <point x="153" y="967" type="line"/>
    </contour>
    <contour>
      <point x="153" y="331" type="line"/>
      <point x="1335" y="331" type="line"/>
      <point x="1335" y="611" type="line"/>
      <point x="153" y="611" type="line"/>
    </contour>
  </outline>
</glyph>
<glyph name="greater" format="1">
  <advance width="1477"/>
  <unicode hex="003E"/>
  <outline>
    <contour>
      <point x="180" y="150" type="line"/>
      <point x="1305" y="523" type="line"/>
      <point x="1305" y="742" type="line"/>
      <point x="180" y="1114" type="line"/>
      <point x="180" y="815" type="line"/>
      <point x="806" y="630" type="line"/>
      <point x="180" y="448" type="line"/>
    </contour>
  </outline>
</glyph>
<glyph name="question" format="1">
  <advance width="1234"/>
  <unicode hex="003F"/>
  <outline>
    <contour>
      <point x="735" y="374" type="line"/>
      <point x="735" y="439" type="line" smooth="yes"/>
      <point x="735" y="491"/>
      <point x="775" y="590"/>
      <point x="861" y="649" type="qcurve" smooth="yes"/>
      <point x="951" y="711"/>
      <point x="1138" y="918"/>
      <point x="1138" y="1064" type="qcurve" smooth="yes"/>
      <point x="1138" y="1254"/>
      <point x="850" y="1474"/>
      <point x="606" y="1474" type="qcurve" smooth="yes"/>
      <point x="364" y="1474"/>
      <point x="60" y="1266"/>
      <point x="60" y="1083" type="qcurve" smooth="yes"/>
      <point x="60" y="1002" type="line"/>
      <point x="403" y="1002" type="line"/>
      <point x="403" y="1083" type="line" smooth="yes"/>
      <point x="403" y="1136"/>
      <point x="505" y="1200"/>
      <point x="606" y="1200" type="qcurve" smooth="yes"/>
      <point x="703" y="1200"/>
      <point x="794" y="1134"/>
      <point x="794" y="1069" type="qcurve" smooth="yes"/>
      <point x="794" y="1001"/>
      <point x="690" y="895"/>
      <point x="594" y="820" type="qcurve" smooth="yes"/>
      <point x="476" y="731"/>
      <point x="391" y="575"/>
      <point x="391" y="442" type="qcurve" smooth="yes"/>
      <point x="391" y="374" type="line"/>
    </contour>
    <contour>
      <point x="368" y="149" type="qcurve" smooth="yes"/>
      <point x="368" y="78"/>
      <point x="478" y="-20"/>
      <point x="572" y="-20" type="qcurve" smooth="yes"/>
      <point x="667" y="-20"/>
      <point x="777" y="78"/>
      <point x="777" y="149" type="qcurve" smooth="yes"/>
      <point x="777" y="221"/>
      <point x="667" y="319"/>
      <point x="572" y="319" type="qcurve" smooth="yes"/>
      <point x="478" y="319"/>
      <point x="368" y="221"/>
    </contour>
  </outline>
</glyph>
<glyph name="at" format="1">
  <advance width="2610"/>
  <unicode hex="0040"/>
  <outline>
    <contour>
      <point x="709" y="483" type="qcurve" smooth="yes"/>
      <point x="685" y="274"/>
      <point x="929" y="-1"/>
      <point x="1131" y="-1" type="qcurve" smooth="yes"/>
      <point x="1236" y="-1"/>
      <point x="1432" y="100"/>
      <point x="1438" y="102" type="qcurve"/>
      <point x="1440" y="106"/>
      <point x="1670" y="-1"/>
      <point x="1797" y="-1" type="qcurve" smooth="yes"/>
      <point x="2079" y="-1"/>
      <point x="2444" y="369"/>
      <point x="2444" y="656" type="qcurve" smooth="yes"/>
      <point x="2444" y="1007"/>
      <point x="1802" y="1482"/>
      <point x="1330" y="1482" type="qcurve" smooth="yes"/>
      <point x="868" y="1482"/>
      <point x="116" y="903"/>
      <point x="116" y="500" type="qcurve" smooth="yes"/>
      <point x="116" y="82"/>
      <point x="775" y="-414"/>
      <point x="1241" y="-414" type="qcurve" smooth="yes"/>
      <point x="1354" y="-414"/>
      <point x="1619" y="-369"/>
      <point x="1740" y="-306" type="qcurve"/>
      <point x="1740" y="-27" type="line"/>
      <point x="1584" y="-102"/>
      <point x="1344" y="-145"/>
      <point x="1246" y="-145" type="qcurve" smooth="yes"/>
      <point x="898" y="-145"/>
      <point x="459" y="194"/>
      <point x="459" y="500" type="qcurve" smooth="yes"/>
      <point x="459" y="803"/>
      <point x="984" y="1217"/>
      <point x="1326" y="1217" type="qcurve" smooth="yes"/>
      <point x="1705" y="1217"/>
      <point x="2132" y="863"/>
      <point x="2132" y="656" type="qcurve" smooth="yes"/>
      <point x="2132" y="435"/>
      <point x="1934" y="252"/>
      <point x="1821" y="252" type="qcurve" smooth="yes"/>
      <point x="1779" y="252"/>
      <point x="1700" y="285"/>
      <point x="1710" y="369" type="qcurve"/>
      <point x="1866" y="979" type="line"/>
      <point x="1713" y="979" type="line"/>
      <point x="1659" y="1010"/>
      <point x="1468" y="1076"/>
      <point x="1333" y="1076" type="qcurve" smooth="yes"/>
      <point x="1126" y="1076"/>
      <point x="737" y="741"/>
    </contour>
    <contour>
      <point x="1065" y="452" type="qcurve" smooth="yes"/>
      <point x="1087" y="637"/>
      <point x="1256" y="823"/>
      <point x="1352" y="823" type="qcurve" smooth="yes"/>
      <point x="1403" y="823"/>
      <point x="1491" y="807"/>
      <point x="1478" y="815" type="qcurve"/>
      <point x="1377" y="437" type="line"/>
      <point x="1340" y="336"/>
      <point x="1231" y="268"/>
      <point x="1185" y="268" type="qcurve" smooth="yes"/>
      <point x="1119" y="268"/>
      <point x="1052" y="352"/>
    </contour>
  </outline>
</glyph>
<glyph name="A" format="1">
  <advance width="1504"/>
  <unicode hex="0041"/>
  <outline>
    <contour>
      <point x="0" y="0" type="line"/>
      <point x="296" y="0" type="line"/>
      <point x="700" y="1099" type="line" smooth="yes"/>
      <point x="707" y="1117"/>
      <point x="718" y="1152"/>
      <point x="718" y="1164" type="qcurve"/>
      <point x="723" y="1164" type="line"/>
      <point x="725" y="1151"/>
      <point x="732" y="1118"/>
      <point x="739" y="1099" type="qcurve" smooth="yes"/>
      <point x="1138" y="0" type="line"/>
      <point x="1504" y="0" type="line"/>
      <point x="957" y="1466" type="line"/>
      <point x="556" y="1466" type="line"/>
    </contour>
    <contour>
      <point x="255" y="348" type="line"/>
      <point x="1231" y="348" type="line"/>
      <point x="1119" y="619" type="line"/>
      <point x="366" y="619" type="line"/>
    </contour>
  </outline>
</glyph>
<glyph name="B" format="1">
  <advance width="1583"/>
  <unicode hex="0042"/>
  <outline>
    <contour>
      <point x="170" y="0" type="line"/>
      <point x="877" y="0" type="line" smooth="yes"/>
      <point x="1196" y="0"/>
      <point x="1483" y="210"/>
      <point x="1483" y="415" type="qcurve" smooth="yes"/>
      <point x="1483" y="566"/>
      <point x="1315" y="733"/>
      <point x="1163" y="761" type="qcurve"/>
      <point x="1163" y="774" type="line"/>
      <point x="1289" y="802"/>
      <point x="1437" y="946"/>
      <point x="1437" y="1093" type="qcurve" smooth="yes"/>
      <point x="1437" y="1265"/>
      <point x="1170" y="1456"/>
      <point x="838" y="1456" type="qcurve" smooth="yes"/>
      <point x="170" y="1456" type="line"/>
    </contour>
    <contour>
      <point x="511" y="890" type="line"/>
      <point x="511" y="1185" type="line"/>
      <point x="795" y="1185" type="line" smooth="yes"/>
      <point x="944" y="1185"/>
      <point x="1077" y="1116"/>
      <point x="1077" y="1040" type="qcurve" smooth="yes"/>
      <point x="1077" y="961"/>
      <point x="947" y="890"/>
      <point x="801" y="890" type="qcurve" smooth="yes"/>
    </contour>
    <contour>
      <point x="511" y="270" type="line"/>
      <point x="511" y="622" type="line"/>
      <point x="837" y="622" type="line" smooth="yes"/>
      <point x="972" y="622"/>
      <point x="1117" y="530"/>
      <point x="1117" y="445" type="qcurve" smooth="yes"/>
      <point x="1117" y="361"/>
      <point x="967" y="270"/>
      <point x="828" y="270" type="qcurve" smooth="yes"/>
    </contour>
  </outline>
</glyph>
<glyph name="C" format="1">
  <advance width="1646"/>
  <unicode hex="0043"/>
  <outline>
    <contour>
      <point x="115" y="714" type="line" smooth="yes"/>
      <point x="115" y="363"/>
      <point x="518" y="-40"/>
      <point x="884" y="-40" type="qcurve" smooth="yes"/>
      <point x="1230" y="-40"/>
      <point x="1543" y="236"/>
      <point x="1592" y="450" type="qcurve" smooth="yes"/>
      <point x="1595" y="463" type="line"/>
      <point x="1247" y="463" type="line"/>
      <point x="1243" y="442" type="line" smooth="yes"/>
      <point x="1225" y="349"/>
      <point x="1070" y="242"/>
      <point x="888" y="242" type="qcurve" smooth="yes"/>
      <point x="667" y="242"/>
      <point x="474" y="517"/>
      <point x="474" y="702" type="qcurve" smooth="yes"/>
      <point x="474" y="767" type="line" smooth="yes"/>
      <point x="474" y="997"/>
      <point x="702" y="1213"/>
      <point x="885" y="1213" type="qcurve" smooth="yes"/>
      <point x="1039" y="1213"/>
      <point x="1231" y="1091"/>
      <point x="1243" y="997" type="qcurve" smooth="yes"/>
      <point x="1244" y="989" type="line"/>
      <point x="1596" y="989" type="line"/>
      <point x="1594" y="1001" type="line" smooth="yes"/>
      <point x="1563" y="1189"/>
      <point x="1222" y="1496"/>
      <point x="897" y="1496" type="qcurve" smooth="yes"/>
      <point x="534" y="1496"/>
      <point x="115" y="1095"/>
      <point x="115" y="748" type="qcurve" smooth="yes"/>
    </contour>
  </outline>
</glyph>
<glyph name="D" format="1">
  <advance width="1699"/>
  <unicode hex="0044"/>
  <outline>
    <contour>
      <point x="170" y="0" type="line"/>
      <point x="736" y="0" type="line" smooth="yes"/>
      <point x="1133" y="0"/>
      <point x="1584" y="386"/>
      <point x="1584" y="722" type="qcurve" smooth="yes"/>
      <point x="1584" y="741" type="line" smooth="yes"/>
      <point x="1584" y="1069"/>
      <point x="1136" y="1456"/>
      <point x="757" y="1456" type="qcurve" smooth="yes"/>
      <point x="170" y="1456" type="line"/>
    </contour>
    <contour>
      <point x="519" y="270" type="line"/>
      <point x="519" y="1185" type="line"/>
      <point x="758" y="1185" type="line" smooth="yes"/>
      <point x="991" y="1185"/>
      <point x="1219" y="952"/>
      <point x="1219" y="754" type="qcurve" smooth="yes"/>
      <point x="1219" y="715" type="line" smooth="yes"/>
      <point x="1219" y="514"/>
      <point x="990" y="270"/>
      <point x="740" y="270" type="qcurve" smooth="yes"/>
    </contour>
  </outline>
</glyph>
<glyph name="E" format="1">
  <advance width="1448"/>
  <unicode hex="0045"/>
  <outline>
    <contour>
      <point x="170" y="0" type="line"/>
      <point x="1380" y="0" type="line"/>
      <point x="1380" y="270" type="line"/>
      <point x="522" y="270" type="line"/>
      <point x="522" y="614" type="line"/>
      <point x="1260" y="614" type="line"/>
      <point x="1260" y="884" type="line"/>
      <point x="522" y="884" type="line"/>
      <point x="522" y="1185" type="line"/>
      <point x="1368" y="1185" type="line"/>
      <point x="1368" y="1456" type="line"/>
      <point x="170" y="1456" type="line"/>
    </contour>
  </outline>
</glyph>
<glyph name="F" format="1">
  <advance width="1412"/>
  <unicode hex="0046"/>
  <outline>
    <contour>
      <point x="170" y="0" type="line"/>
      <point x="522" y="0" type="line"/>
      <point x="522" y="587" type="line"/>
      <point x="1237" y="587" type="line"/>
      <point x="1237" y="858" type="line"/>
      <point x="522" y="858" type="line"/>
      <point x="522" y="1185" type="line"/>
      <point x="1353" y="1185" type="line"/>
      <point x="1353" y="1456" type="line"/>
      <point x="170" y="1456" type="line"/>
    </contour>
  </outline>
</glyph>
<glyph name="G" format="1">
  <advance width="1691"/>
  <unicode hex="0047"/>
  <outline>
    <contour>
      <point x="115" y="717" type="line" smooth="yes"/>
      <point x="115" y="362"/>
      <point x="547" y="-39"/>
      <point x="901" y="-39" type="qcurve" smooth="yes"/>
      <point x="1181" y="-39"/>
      <point x="1529" y="106"/>
      <point x="1610" y="190" type="qcurve"/>
      <point x="1610" y="789" type="line"/>
      <point x="841" y="789" type="line"/>
      <point x="841" y="520" type="line"/>
      <point x="1266" y="520" type="line"/>
      <point x="1266" y="318" type="line"/>
      <point x="1250" y="306"/>
      <point x="1089" y="233"/>
      <point x="903" y="233" type="qcurve" smooth="yes"/>
      <point x="700" y="233"/>
      <point x="480" y="470"/>
      <point x="480" y="699" type="qcurve" smooth="yes"/>
      <point x="480" y="764" type="line" smooth="yes"/>
      <point x="480" y="985"/>
      <point x="683" y="1222"/>
      <point x="892" y="1222" type="qcurve" smooth="yes"/>
      <point x="1067" y="1222"/>
      <point x="1241" y="1108"/>
      <point x="1252" y="1042" type="qcurve" smooth="yes"/>
      <point x="1254" y="1030" type="line"/>
      <point x="1605" y="1030" type="line"/>
      <point x="1602" y="1052" type="line" smooth="yes"/>
      <point x="1574" y="1255"/>
      <point x="1232" y="1496"/>
      <point x="899" y="1496" type="qcurve" smooth="yes"/>
      <point x="524" y="1496"/>
      <point x="115" y="1092"/>
      <point x="115" y="751" type="qcurve" smooth="yes"/>
    </contour>
  </outline>
</glyph>
<glyph name="H" format="1">
  <advance width="1777"/>
  <unicode hex="0048"/>
  <outline>
    <contour>
      <point x="170" y="0" type="line"/>
      <point x="521" y="0" type="line"/>
      <point x="521" y="614" type="line"/>
      <point x="1256" y="614" type="line"/>
      <point x="1256" y="0" type="line"/>
      <point x="1607" y="0" type="line"/>
      <point x="1607" y="1456" type="line"/>
      <point x="1256" y="1456" type="line"/>
      <point x="1256" y="884" type="line"/>
      <point x="521" y="884" type="line"/>
      <point x="521" y="1456" type="line"/>
      <point x="170" y="1456" type="line"/>
    </contour>
  </outline>
</glyph>
<glyph name="J" format="1">
  <advance width="1383"/>
  <unicode hex="004A"/>
  <outline>
    <contour>
      <point x="24" y="388" type="line" smooth="yes"/>
      <point x="24" y="188"/>
      <point x="375" y="-37"/>
      <point x="626" y="-37" type="qcurve" smooth="yes"/>
      <point x="882" y="-37"/>
      <point x="1227" y="215"/>
      <point x="1227" y="441" type="qcurve" smooth="yes"/>
      <point x="1227" y="1456" type="line"/>
      <point x="891" y="1456" type="line"/>
      <point x="891" y="441" type="line" smooth="yes"/>
      <point x="891" y="356"/>
      <point x="759" y="233"/>
      <point x="626" y="233" type="qcurve" smooth="yes"/>
      <point x="491" y="233"/>
      <point x="359" y="336"/>
      <point x="359" y="388" type="qcurve" smooth="yes"/>
      <point x="359" y="403" type="line"/>
      <point x="24" y="403" type="line"/>
    </contour>
  </outline>
</glyph>
<glyph name="K" format="1">
  <advance width="1517"/>
  <unicode hex="004B"/>
  <outline>
    <contour>
      <point x="1107" y="0" type="line"/>
      <point x="1537" y="0" type="line"/>
      <point x="795" y="953" type="line"/>
      <point x="577" y="703" type="line"/>
    </contour>
    <contour>
      <point x="170" y="0" type="line"/>
      <point x="522" y="0" type="line"/>
      <point x="522" y="476" type="line"/>
      <point x="1441" y="1456" type="line"/>
      <point x="1093" y="1456" type="line"/>
      <point x="559" y="859" type="line"/>
      <point x="522" y="802" type="line"/>
      <point x="522" y="1456" type="line"/>
      <point x="170" y="1456" type="line"/>
    </contour>
  </outline>
</glyph>
<glyph name="L" format="1">
  <advance width="1355"/>
  <unicode hex="004C"/>
  <outline>
    <contour>
      <point x="170" y="0" type="line"/>
      <point x="1331" y="0" type="line"/>
      <point x="1331" y="270" type="line"/>
      <point x="522" y="270" type="line"/>
      <point x="522" y="1456" type="line"/>
      <point x="170" y="1456" type="line"/>
    </contour>
  </outline>
</glyph>
<glyph name="M" format="1">
  <advance width="2168"/>
  <unicode hex="004D"/>
  <outline>
    <contour>
      <point x="170" y="0" type="line"/>
      <point x="440" y="0" type="line"/>
      <point x="440" y="919" type="line" smooth="yes"/>
      <point x="440" y="933"/>
      <point x="432" y="1068"/>
      <point x="425" y="1129" type="qcurve"/>
      <point x="444" y="1129" type="line"/>
      <point x="445" y="1123"/>
      <point x="479" y="1036"/>
      <point x="491" y="1008" type="qcurve" smooth="yes"/>
      <point x="897" y="0" type="line"/>
      <point x="1190" y="0" type="line"/>
      <point x="1615" y="1063" type="line" smooth="yes"/>
      <point x="1626" y="1090"/>
      <point x="1648" y="1179"/>
      <point x="1649" y="1185" type="qcurve"/>
      <point x="1665" y="1185" type="line"/>
      <point x="1653" y="1128"/>
      <point x="1646" y="934"/>
      <point x="1646" y="919" type="qcurve" smooth="yes"/>
      <point x="1646" y="0" type="line"/>
      <point x="1998" y="0" type="line"/>
      <point x="1998" y="1456" type="line"/>
      <point x="1494" y="1456" type="line"/>
      <point x="1118" y="488" type="line" smooth="yes"/>
      <point x="1113" y="476"/>
      <point x="1090" y="397"/>
      <point x="1088" y="389" type="qcurve"/>
      <point x="1081" y="389" type="line"/>
      <point x="1080" y="397"/>
      <point x="1043" y="506"/>
      <point x="1038" y="517" type="qcurve"/>
      <point x="667" y="1456" type="line"/>
      <point x="170" y="1456" type="line"/>
    </contour>
  </outline>
</glyph>
<glyph name="N" format="1">
  <advance width="1648"/>
  <unicode hex="004E"/>
  <outline>
    <contour>
      <point x="170" y="0" type="line"/>
      <point x="440" y="0" type="line"/>
      <point x="440" y="952" type="line" smooth="yes"/>
      <point x="440" y="1006"/>
      <point x="439" y="1034"/>
      <point x="438" y="1054" type="qcurve"/>
      <point x="441" y="1054" type="line"/>
      <point x="451" y="1033"/>
      <point x="481" y="987"/>
      <point x="490" y="973" type="qcurve" smooth="yes"/>
      <point x="1120" y="0" type="line"/>
      <point x="1478" y="0" type="line"/>
      <point x="1478" y="1456" type="line"/>
      <point x="1212" y="1456" type="line"/>
      <point x="1212" y="638" type="line" smooth="yes"/>
      <point x="1212" y="626"/>
      <point x="1216" y="554"/>
      <point x="1219" y="502" type="qcurve"/>
      <point x="1203" y="502" type="line"/>
      <point x="1199" y="509"/>
      <point x="1138" y="595"/>
      <point x="1129" y="609" type="qcurve" smooth="yes"/>
      <point x="577" y="1456" type="line"/>
      <point x="170" y="1456" type="line"/>
    </contour>
  </outline>
</glyph>
<glyph name="O" format="1">
  <advance width="1799"/>
  <unicode hex="004F"/>
  <outline>
    <contour>
      <point x="115" y="715" type="line" smooth="yes"/>
      <point x="115" y="369"/>
      <point x="540" y="-40"/>
      <point x="901" y="-40" type="qcurve" smooth="yes"/>
      <point x="1265" y="-40"/>
      <point x="1684" y="373"/>
      <point x="1684" y="715" type="qcurve" smooth="yes"/>
      <point x="1684" y="749" type="line" smooth="yes"/>
      <point x="1684" y="1085"/>
      <point x="1264" y="1496"/>
      <point x="898" y="1496" type="qcurve" smooth="yes"/>
      <point x="543" y="1496"/>
      <point x="115" y="1082"/>
      <point x="115" y="749" type="qcurve" smooth="yes"/>
    </contour>
    <contour>
      <point x="480" y="699" type="qcurve" smooth="yes"/>
      <point x="480" y="765" type="line" smooth="yes"/>
      <point x="480" y="974"/>
      <point x="685" y="1217"/>
      <point x="899" y="1217" type="qcurve" smooth="yes"/>
      <point x="1113" y="1217"/>
      <point x="1319" y="972"/>
      <point x="1319" y="765" type="qcurve" smooth="yes"/>
      <point x="1319" y="699" type="line" smooth="yes"/>
      <point x="1319" y="482"/>
      <point x="1113" y="238"/>
      <point x="901" y="238" type="qcurve" smooth="yes"/>
      <point x="688" y="238"/>
      <point x="480" y="484"/>
    </contour>
  </outline>
</glyph>
<glyph name="P" format="1">
  <advance width="1500"/>
  <unicode hex="0050"/>
  <outline>
    <contour>
      <point x="170" y="0" type="line"/>
      <point x="522" y="0" type="line"/>
      <point x="522" y="521" type="line"/>
      <point x="846" y="521" type="line" smooth="yes"/>
      <point x="1152" y="521"/>
      <point x="1452" y="774"/>
      <point x="1452" y="996" type="qcurve" smooth="yes"/>
      <point x="1452" y="1203"/>
      <point x="1150" y="1456"/>
      <point x="846" y="1456" type="qcurve" smooth="yes"/>
      <point x="170" y="1456" type="line"/>
    </contour>
    <contour>
      <point x="522" y="791" type="line"/>
      <point x="522" y="1185" type="line"/>
      <point x="794" y="1185" type="line" smooth="yes"/>
      <point x="958" y="1185"/>
      <point x="1092" y="1100"/>
      <point x="1092" y="995" type="qcurve" smooth="yes"/>
      <point x="1092" y="890"/>
      <point x="958" y="791"/>
      <point x="794" y="791" type="qcurve" smooth="yes"/>
    </contour>
  </outline>
</glyph>
<glyph name="Q" format="1">
  <advance width="1798"/>
  <unicode hex="0051"/>
  <outline>
    <contour>
      <point x="1366" y="-239" type="line"/>
      <point x="1554" y="-72" type="line"/>
      <point x="1107" y="235" type="line"/>
      <point x="941" y="64" type="line"/>
    </contour>
    <contour>
      <point x="115" y="715" type="line" smooth="yes"/>
      <point x="115" y="367"/>
      <point x="602" y="-23"/>
      <point x="901" y="-23" type="qcurve" smooth="yes"/>
      <point x="1215" y="-23"/>
      <point x="1683" y="367"/>
      <point x="1683" y="715" type="qcurve" smooth="yes"/>
      <point x="1683" y="750" type="line" smooth="yes"/>
      <point x="1683" y="1095"/>
      <point x="1243" y="1493"/>
      <point x="898" y="1493" type="qcurve" smooth="yes"/>
      <point x="563" y="1493"/>
      <point x="115" y="1094"/>
      <point x="115" y="749" type="qcurve" smooth="yes"/>
    </contour>
    <contour>
      <point x="480" y="699" type="qcurve" smooth="yes"/>
      <point x="480" y="764" type="line" smooth="yes"/>
      <point x="480" y="963"/>
      <point x="695" y="1217"/>
      <point x="899" y="1217" type="qcurve" smooth="yes"/>
      <point x="1110" y="1217"/>
      <point x="1319" y="961"/>
      <point x="1319" y="765" type="qcurve" smooth="yes"/>
      <point x="1319" y="699" type="line" smooth="yes"/>
      <point x="1319" y="492"/>
      <point x="1114" y="248"/>
      <point x="901" y="248" type="qcurve" smooth="yes"/>
      <point x="699" y="248"/>
      <point x="480" y="495"/>
    </contour>
  </outline>
</glyph>
<glyph name="R" format="1">
  <advance width="1551"/>
  <unicode hex="0052"/>
  <outline>
    <contour>
      <point x="1117" y="0" type="line"/>
      <point x="1510" y="0" type="line"/>
      <point x="1510" y="11" type="line"/>
      <point x="1127" y="661" type="line"/>
      <point x="756" y="661" type="line"/>
    </contour>
    <contour>
      <point x="170" y="0" type="line"/>
      <point x="522" y="0" type="line"/>
      <point x="522" y="539" type="line"/>
      <point x="947" y="539" type="line"/>
      <point x="1186" y="570"/>
      <point x="1443" y="799"/>
      <point x="1443" y="994" type="qcurve" smooth="yes"/>
      <point x="1443" y="1219"/>
      <point x="1119" y="1456"/>
      <point x="813" y="1456" type="qcurve" smooth="yes"/>
      <point x="170" y="1456" type="line"/>
    </contour>
    <contour>
      <point x="522" y="809" type="line"/>
      <point x="522" y="1185" type="line"/>
      <point x="781" y="1185" type="line" smooth="yes"/>
      <point x="950" y="1185"/>
      <point x="1099" y="1079"/>
      <point x="1099" y="994" type="qcurve" smooth="yes"/>
      <point x="1099" y="919"/>
      <point x="944" y="809"/>
      <point x="788" y="809" type="qcurve" smooth="yes"/>
    </contour>
  </outline>
</glyph>
<glyph name="S" format="1">
  <advance width="1523"/>
  <unicode hex="0053"/>
  <outline>
    <contour>
      <point x="88" y="387" type="line" smooth="yes"/>
      <point x="88" y="192"/>
      <point x="456" y="-30"/>
      <point x="781" y="-30" type="qcurve" smooth="yes"/>
      <point x="1099" y="-30"/>
      <point x="1448" y="206"/>
      <point x="1448" y="430" type="qcurve" smooth="yes"/>
      <point x="1448" y="635"/>
      <point x="1159" y="847"/>
      <point x="919" y="915" type="qcurve" smooth="yes"/>
      <point x="631" y="995"/>
      <point x="477" y="1049"/>
      <point x="477" y="1103" type="qcurve" smooth="yes"/>
      <point x="477" y="1151"/>
      <point x="616" y="1206"/>
      <point x="756" y="1206" type="qcurve" smooth="yes"/>
      <point x="919" y="1206"/>
      <point x="1063" y="1144"/>
      <point x="1063" y="1070" type="qcurve" smooth="yes"/>
      <point x="1063" y="1054" type="line"/>
      <point x="1414" y="1054" type="line"/>
      <point x="1414" y="1071" type="line" smooth="yes"/>
      <point x="1414" y="1220"/>
      <point x="1101" y="1486"/>
      <point x="766" y="1486" type="qcurve" smooth="yes"/>
      <point x="441" y="1486"/>
      <point x="124" y="1229"/>
      <point x="124" y="1033" type="qcurve" smooth="yes"/>
      <point x="124" y="840"/>
      <point x="378" y="646"/>
      <point x="680" y="560" type="qcurve" smooth="yes"/>
      <point x="950" y="485"/>
      <point x="1094" y="423"/>
      <point x="1094" y="360" type="qcurve" smooth="yes"/>
      <point x="1094" y="305"/>
      <point x="947" y="245"/>
      <point x="767" y="245" type="qcurve" smooth="yes"/>
      <point x="607" y="245"/>
      <point x="439" y="305"/>
      <point x="439" y="392" type="qcurve" smooth="yes"/>
      <point x="439" y="406" type="line"/>
      <point x="88" y="406" type="line"/>
    </contour>
  </outline>
</glyph>
<glyph name="T" format="1">
  <advance width="1493"/>
  <unicode hex="0054"/>
  <outline>
    <contour>
      <point x="24" y="1185" type="line"/>
      <point x="572" y="1185" type="line"/>
      <point x="572" y="0" type="line"/>
      <point x="921" y="0" type="line"/>
      <point x="921" y="1185" type="line"/>
      <point x="1469" y="1185" type="line"/>
      <point x="1469" y="1456" type="line"/>
      <point x="24" y="1456" type="line"/>
    </contour>
  </outline>
</glyph>
<glyph name="U" format="1">
  <advance width="1624"/>
  <unicode hex="0055"/>
  <outline>
    <contour>
      <point x="132" y="471" type="line" smooth="yes"/>
      <point x="132" y="238"/>
      <point x="506" y="-30"/>
      <point x="811" y="-30" type="qcurve" smooth="yes"/>
      <point x="1100" y="-30"/>
      <point x="1492" y="239"/>
      <point x="1492" y="471" type="qcurve" smooth="yes"/>
      <point x="1492" y="1456" type="line"/>
      <point x="1141" y="1456" type="line"/>
      <point x="1141" y="574" type="line" smooth="yes"/>
      <point x="1141" y="400"/>
      <point x="966" y="252"/>
      <point x="811" y="252" type="qcurve" smooth="yes"/>
      <point x="658" y="252"/>
      <point x="483" y="400"/>
      <point x="483" y="574" type="qcurve" smooth="yes"/>
      <point x="483" y="1456" type="line"/>
      <point x="132" y="1456" type="line"/>
    </contour>
  </outline>
</glyph>
<glyph name="V" format="1">
  <advance width="1524"/>
  <unicode hex="0056"/>
  <outline>
    <contour>
      <point x="28" y="1456" type="line"/>
      <point x="568" y="-10" type="line"/>
      <point x="957" y="-10" type="line"/>
      <point x="1496" y="1456" type="line"/>
      <point x="1210" y="1456" type="line"/>
      <point x="835" y="419" type="line" smooth="yes"/>
      <point x="825" y="391"/>
      <point x="810" y="342"/>
      <point x="805" y="320" type="qcurve"/>
      <point x="794" y="320" type="line"/>
      <point x="790" y="341"/>
      <point x="774" y="395"/>
      <point x="764" y="423" type="qcurve" smooth="yes"/>
      <point x="393" y="1456" type="line"/>
    </contour>
  </outline>
</glyph>
<glyph name="W" format="1">
  <advance width="2271"/>
  <unicode hex="0057"/>
  <outline>
    <contour>
      <point x="53" y="1456" type="line"/>
      <point x="401" y="-10" type="line"/>
      <point x="828" y="-10" type="line"/>
      <point x="1130" y="1046" type="line"/>
      <point x="1135" y="1076"/>
      <point x="1133" y="1137"/>
      <point x="1138" y="1144" type="qcurve"/>
      <point x="1157" y="1144" type="line"/>
      <point x="1158" y="1138"/>
      <point x="1176" y="1072"/>
      <point x="1183" y="1043" type="qcurve" smooth="yes"/>
      <point x="1454" y="-10" type="line"/>
      <point x="1872" y="-10" type="line"/>
      <point x="2218" y="1456" type="line"/>
      <point x="1943" y="1456" type="line"/>
      <point x="1710" y="405" type="line" smooth="yes"/>
      <point x="1704" y="376"/>
      <point x="1701" y="324"/>
      <point x="1698" y="298" type="qcurve"/>
      <point x="1692" y="298" type="line"/>
      <point x="1687" y="325"/>
      <point x="1681" y="384"/>
      <point x="1674" y="411" type="qcurve" smooth="yes"/>
      <point x="1406" y="1456" type="line"/>
      <point x="967" y="1456" type="line"/>
      <point x="672" y="406" type="line" smooth="yes"/>
      <point x="657" y="353"/>
      <point x="658" y="319"/>
      <point x="654" y="298" type="qcurve"/>
      <point x="644" y="298" type="line"/>
      <point x="640" y="318"/>
      <point x="640" y="354"/>
      <point x="629" y="408" type="qcurve" smooth="yes"/>
      <point x="404" y="1456" type="line"/>
    </contour>
  </outline>
</glyph>
<glyph name="X" format="1">
  <advance width="1478"/>
  <unicode hex="0058"/>
  <outline>
    <contour>
      <point x="69" y="1456" type="line"/>
      <point x="593" y="644" type="line"/>
      <point x="603" y="644" type="line"/>
      <point x="1013" y="0" type="line"/>
      <point x="1430" y="0" type="line"/>
      <point x="899" y="813" type="line"/>
      <point x="887" y="813" type="line"/>
      <point x="484" y="1456" type="line"/>
    </contour>
    <contour>
      <point x="62" y="0" type="line"/>
      <point x="367" y="0" type="line"/>
      <point x="779" y="644" type="line"/>
      <point x="879" y="644" type="line"/>
      <point x="1394" y="1456" type="line"/>
      <point x="1089" y="1456" type="line"/>
      <point x="696" y="803" type="line"/>
      <point x="592" y="803" type="line"/>
    </contour>
  </outline>
</glyph>
<glyph name="Y" format="1">
  <advance width="1454"/>
  <unicode hex="0059"/>
  <outline>
    <contour>
      <point x="16" y="1456" type="line"/>
      <point x="542" y="506" type="line"/>
      <point x="542" y="0" type="line"/>
      <point x="893" y="0" type="line"/>
      <point x="893" y="463" type="line"/>
      <point x="1438" y="1456" type="line"/>
      <point x="1136" y="1456" type="line"/>
      <point x="833" y="868" type="line" smooth="yes"/>
      <point x="815" y="832"/>
      <point x="790" y="790"/>
      <point x="778" y="764" type="qcurve"/>
      <point x="766" y="764" type="line"/>
      <point x="755" y="794"/>
      <point x="706" y="876"/>
      <point x="696" y="895" type="qcurve" smooth="yes"/>
      <point x="396" y="1456" type="line"/>
    </contour>
  </outline>
</glyph>
<glyph name="Z" format="1">
  <advance width="1271"/>
  <unicode hex="005A"/>
  <outline>
    <contour>
      <point x="36" y="0" type="line"/>
      <point x="1235" y="0" type="line"/>
      <point x="1235" y="270" type="line"/>
      <point x="518" y="270" type="line"/>
      <point x="1205" y="1280" type="line"/>
      <point x="1205" y="1456" type="line"/>
      <point x="49" y="1456" type="line"/>
      <point x="49" y="1185" type="line"/>
      <point x="754" y="1185" type="line"/>
      <point x="36" y="147" type="line"/>
    </contour>
  </outline>
</glyph>
<glyph name="bracketleft" format="1">
  <advance width="859"/>
  <unicode hex="005B"/>
  <outline>
    <contour>
      <point x="147" y="-312" type="line"/>
      <point x="831" y="-312" type="line"/>
      <point x="831" y="-152" type="line"/>
      <point x="490" y="-152" type="line"/>
      <point x="490" y="1296" type="line"/>
      <point x="831" y="1296" type="line"/>
      <point x="831" y="1456" type="line"/>
      <point x="147" y="1456" type="line"/>
    </contour>
  </outline>
</glyph>
<glyph name="backslash" format="1">
  <advance width="818"/>
  <unicode hex="005C"/>
  <outline>
    <contour>
      <point x="920" y="-125" type="line"/>
      <point x="207" y="1456" type="line"/>
      <point x="-102" y="1456" type="line"/>
      <point x="609" y="-125" type="line"/>
    </contour>
  </outline>
</glyph>
<glyph name="bracketright" format="1">
  <advance width="858"/>
  <unicode hex="005D"/>
  <outline>
    <contour>
      <point x="711" y="-312" type="line"/>
      <point x="711" y="1456" type="line"/>
      <point x="28" y="1456" type="line"/>
      <point x="28" y="1296" type="line"/>
      <point x="369" y="1296" type="line"/>
      <point x="369" y="-152" type="line"/>
      <point x="28" y="-152" type="line"/>
      <point x="28" y="-312" type="line"/>
    </contour>
  </outline>
</glyph>
<glyph name="asciicircum" format="1">
  <advance width="1522"/>
  <unicode hex="005E"/>
  <outline>
    <contour>
      <point x="-62" y="637" type="line"/>
      <point x="328" y="637" type="line"/>
      <point x="762" y="1078" type="line"/>
      <point x="1193" y="637" type="line"/>
      <point x="1581" y="637" type="line"/>
      <point x="892" y="1405" type="line"/>
      <point x="631" y="1405" type="line"/>
    </contour>
  </outline>
</glyph>
<glyph name="underscore" format="1">
  <advance width="1257"/>
  <unicode hex="005F"/>
  <outline>
    <contour>
      <point x="0" y="-232" type="line"/>
      <point x="495" y="-232" type="line"/>
      <point x="495" y="45" type="line"/>
      <point x="0" y="45" type="line"/>
    </contour>
    <contour>
      <point x="381" y="-232" type="line"/>
      <point x="876" y="-232" type="line"/>
      <point x="876" y="45" type="line"/>
      <point x="381" y="45" type="line"/>
    </contour>
    <contour>
      <point x="762" y="-232" type="line"/>
      <point x="1257" y="-232" type="line"/>
      <point x="1257" y="45" type="line"/>
      <point x="762" y="45" type="line"/>
    </contour>
  </outline>
</glyph>
<glyph name="grave" format="1">
  <advance width="1226"/>
  <unicode hex="0060"/>
  <outline>
    <contour>
      <point x="609" y="1406" type="line"/>
      <point x="153" y="1406" type="line"/>
      <point x="619" y="1007" type="line"/>
      <point x="906" y="1007" type="line"/>
      <point x="906" y="1113" type="line"/>
    </contour>
  </outline>
</glyph>
<glyph name="a" format="1">
  <advance width="1433"/>
  <unicode hex="0061"/>
  <outline>
    <contour>
      <point x="91" y="327" type="qcurve" smooth="yes"/>
      <point x="91" y="139"/>
      <point x="363" y="-28"/>
      <point x="570" y="-28" type="qcurve" smooth="yes"/>
      <point x="750" y="-28"/>
      <point x="918" y="88"/>
      <point x="953" y="143" type="qcurve"/>
      <point x="953" y="102"/>
      <point x="974" y="23"/>
      <point x="989" y="0" type="qcurve"/>
      <point x="1331" y="0" type="line"/>
      <point x="1331" y="-4" type="line"/>
      <point x="1306" y="42"/>
      <point x="1284" y="156"/>
      <point x="1284" y="236" type="qcurve" smooth="yes"/>
      <point x="1284" y="730" type="line" smooth="yes"/>
      <point x="1284" y="899"/>
      <point x="1010" y="1092"/>
      <point x="743" y="1092" type="qcurve" smooth="yes"/>
      <point x="462" y="1092"/>
      <point x="166" y="893"/>
      <point x="166" y="779" type="qcurve" smooth="yes"/>
      <point x="166" y="762" type="line"/>
      <point x="501" y="762" type="line"/>
      <point x="501" y="780" type="line" smooth="yes"/>
      <point x="501" y="797"/>
      <point x="589" y="825"/>
      <point x="727" y="825" type="qcurve" smooth="yes"/>
      <point x="864" y="825"/>
      <point x="946" y="748"/>
      <point x="946" y="707" type="qcurve" smooth="yes"/>
      <point x="946" y="699" type="line"/>
      <point x="650" y="699" type="line" smooth="yes"/>
      <point x="423" y="699"/>
      <point x="91" y="523"/>
    </contour>
    <contour>
      <point x="441" y="351" type="qcurve" smooth="yes"/>
      <point x="441" y="407"/>
      <point x="575" y="451"/>
      <point x="742" y="451" type="qcurve" smooth="yes"/>
      <point x="946" y="451" type="line"/>
      <point x="946" y="447" type="line" smooth="yes"/>
      <point x="946" y="389"/>
      <point x="799" y="240"/>
      <point x="654" y="240" type="qcurve" smooth="yes"/>
      <point x="528" y="240"/>
      <point x="441" y="303"/>
    </contour>
  </outline>
</glyph>
<glyph name="b" format="1">
  <advance width="1490"/>
  <unicode hex="0062"/>
  <outline>
    <contour>
      <point x="148" y="0" type="line"/>
      <point x="477" y="0" type="line"/>
      <point x="488" y="150" type="line"/>
      <point x="555" y="71"/>
      <point x="760" y="-24"/>
      <point x="900" y="-24" type="qcurve" smooth="yes"/>
      <point x="1143" y="-24"/>
      <point x="1405" y="295"/>
      <point x="1405" y="529" type="qcurve" smooth="yes"/>
      <point x="1405" y="550" type="line" smooth="yes"/>
      <point x="1405" y="789"/>
      <point x="1143" y="1092"/>
      <point x="897" y="1092" type="qcurve" smooth="yes"/>
      <point x="761" y="1092"/>
      <point x="560" y="1005"/>
      <point x="493" y="932" type="qcurve"/>
      <point x="493" y="1536" type="line"/>
      <point x="148" y="1536" type="line"/>
    </contour>
    <contour>
      <point x="493" y="423" type="qcurve"/>
      <point x="493" y="665" type="line"/>
      <point x="517" y="716"/>
      <point x="659" y="822"/>
      <point x="773" y="822" type="qcurve" smooth="yes"/>
      <point x="924" y="822"/>
      <point x="1056" y="658"/>
      <point x="1056" y="550" type="qcurve" smooth="yes"/>
      <point x="1056" y="529" type="line" smooth="yes"/>
      <point x="1056" y="415"/>
      <point x="928" y="247"/>
      <point x="775" y="247" type="qcurve" smooth="yes"/>
      <point x="655" y="247"/>
      <point x="517" y="364"/>
    </contour>
  </outline>
</glyph>
<glyph name="c" format="1">
  <advance width="1372"/>
  <unicode hex="0063"/>
  <outline>
    <contour>
      <point x="85" y="524" type="line" smooth="yes"/>
      <point x="85" y="311"/>
      <point x="397" y="-40"/>
      <point x="737" y="-40" type="qcurve" smooth="yes"/>
      <point x="1032" y="-40"/>
      <point x="1336" y="191"/>
      <point x="1336" y="327" type="qcurve" smooth="yes"/>
      <point x="1336" y="332" type="line"/>
      <point x="1005" y="332" type="line"/>
      <point x="1005" y="327" type="line" smooth="yes"/>
      <point x="1005" y="261"/>
      <point x="874" y="229"/>
      <point x="751" y="229" type="qcurve" smooth="yes"/>
      <point x="614" y="229"/>
      <point x="457" y="386"/>
      <point x="457" y="526" type="qcurve" smooth="yes"/>
      <point x="457" y="539" type="line" smooth="yes"/>
      <point x="457" y="667"/>
      <point x="613" y="823"/>
      <point x="750" y="823" type="qcurve" smooth="yes"/>
      <point x="890" y="823"/>
      <point x="1005" y="734"/>
      <point x="1005" y="692" type="qcurve" smooth="yes"/>
      <point x="1005" y="690" type="line"/>
      <point x="1336" y="690" type="line"/>
      <point x="1336" y="694" type="line" smooth="yes"/>
      <point x="1336" y="838"/>
      <point x="1054" y="1092"/>
      <point x="737" y="1092" type="qcurve" smooth="yes"/>
      <point x="418" y="1092"/>
      <point x="85" y="763"/>
      <point x="85" y="538" type="qcurve" smooth="yes"/>
    </contour>
  </outline>
</glyph>
<glyph name="d" format="1">
  <advance width="1491"/>
  <unicode hex="0064"/>
  <outline>
    <contour>
      <point x="85" y="518" type="line" smooth="yes"/>
      <point x="85" y="287"/>
      <point x="373" y="-30"/>
      <point x="604" y="-30" type="qcurve" smooth="yes"/>
      <point x="739" y="-30"/>
      <point x="937" y="63"/>
      <point x="1003" y="139" type="qcurve"/>
      <point x="1014" y="0" type="line"/>
      <point x="1343" y="0" type="line"/>
      <point x="1343" y="1536" type="line"/>
      <point x="998" y="1536" type="line"/>
      <point x="998" y="942" type="line"/>
      <point x="956" y="988"/>
      <point x="765" y="1087"/>
      <point x="624" y="1087" type="qcurve" smooth="yes"/>
      <point x="385" y="1087"/>
      <point x="85" y="780"/>
      <point x="85" y="538" type="qcurve" smooth="yes"/>
    </contour>
    <contour>
      <point x="439" y="521" type="qcurve" smooth="yes"/>
      <point x="439" y="542" type="line" smooth="yes"/>
      <point x="439" y="665"/>
      <point x="578" y="821"/>
      <point x="723" y="821" type="qcurve" smooth="yes"/>
      <point x="841" y="821"/>
      <point x="973" y="727"/>
      <point x="998" y="671" type="qcurve"/>
      <point x="998" y="412" type="line"/>
      <point x="974" y="349"/>
      <point x="844" y="242"/>
      <point x="721" y="242" type="qcurve" smooth="yes"/>
      <point x="569" y="242"/>
      <point x="439" y="419"/>
    </contour>
  </outline>
</glyph>
<glyph name="e" format="1">
  <advance width="1390"/>
  <unicode hex="0065"/>
  <outline>
    <contour>
      <point x="85" y="518" type="line" smooth="yes"/>
      <point x="85" y="266"/>
      <point x="440" y="-40"/>
      <point x="722" y="-40" type="qcurve" smooth="yes"/>
      <point x="1005" y="-40"/>
      <point x="1257" y="90"/>
      <point x="1305" y="163" type="qcurve" smooth="yes"/>
      <point x="1313" y="175" type="line"/>
      <point x="1095" y="325" type="line"/>
      <point x="1082" y="317" type="line"/>
      <point x="1031" y="265"/>
      <point x="851" y="236"/>
      <point x="784" y="236" type="qcurve" smooth="yes"/>
      <point x="606" y="236"/>
      <point x="433" y="390"/>
      <point x="433" y="503" type="qcurve" smooth="yes"/>
      <point x="433" y="546" type="line" smooth="yes"/>
      <point x="433" y="665"/>
      <point x="596" y="823"/>
      <point x="733" y="823" type="qcurve" smooth="yes"/>
      <point x="864" y="823"/>
      <point x="984" y="746"/>
      <point x="984" y="694" type="qcurve" smooth="yes"/>
      <point x="984" y="688" type="line"/>
      <point x="221" y="688" type="line"/>
      <point x="221" y="427" type="line"/>
      <point x="1334" y="427" type="line"/>
      <point x="1334" y="582" type="line" smooth="yes"/>
      <point x="1334" y="776"/>
      <point x="1032" y="1092"/>
      <point x="741" y="1092" type="qcurve" smooth="yes"/>
      <point x="422" y="1092"/>
      <point x="85" y="767"/>
      <point x="85" y="537" type="qcurve" smooth="yes"/>
    </contour>
  </outline>
</glyph>
<glyph name="f" format="1">
  <advance width="760"/>
  <unicode hex="0066"/>
  <outline>
    <contour>
      <point x="197" y="0" type="line"/>
      <point x="541" y="0" type="line"/>
      <point x="541" y="974" type="line"/>
      <point x="541" y="1004" type="line"/>
      <point x="541" y="1195" type="line" smooth="yes"/>
      <point x="540" y="1231"/>
      <point x="600" y="1284"/>
      <point x="700" y="1284" type="qcurve" smooth="yes"/>
      <point x="740" y="1284"/>
      <point x="795" y="1281"/>
      <point x="819" y="1280" type="qcurve"/>
      <point x="831" y="1542" type="line"/>
      <point x="774" y="1551"/>
      <point x="659" y="1557"/>
      <point x="552" y="1557" type="qcurve" smooth="yes"/>
      <point x="387" y="1557"/>
      <point x="197" y="1370"/>
      <point x="197" y="1196" type="qcurve" smooth="yes"/>
    </contour>
    <contour>
      <point x="26" y="795" type="line"/>
      <point x="770" y="795" type="line"/>
      <point x="770" y="1052" type="line"/>
      <point x="382" y="1052" type="line"/>
      <point x="350" y="1052" type="line"/>
      <point x="26" y="1052" type="line"/>
    </contour>
  </outline>
</glyph>
<glyph name="g" format="1">
  <advance width="1493"/>
  <unicode hex="0067"/>
  <outline>
    <contour>
      <point x="149" y="-284" type="line"/>
      <point x="220" y="-348"/>
      <point x="541" y="-437"/>
      <point x="730" y="-437" type="qcurve" smooth="yes"/>
      <point x="1018" y="-437"/>
      <point x="1353" y="-178"/>
      <point x="1353" y="23" type="qcurve" smooth="yes"/>
      <point x="1353" y="1052" type="line"/>
      <point x="1035" y="1052" type="line"/>
      <point x="1021" y="953" type="line"/>
      <point x="1004" y="982"/>
      <point x="804" y="1087"/>
      <point x="654" y="1087" type="qcurve" smooth="yes"/>
      <point x="376" y="1087"/>
      <point x="85" y="779"/>
      <point x="85" y="532" type="qcurve" smooth="yes"/>
      <point x="85" y="521" type="line" smooth="yes"/>
      <point x="85" y="286"/>
      <point x="377" y="-20"/>
      <point x="652" y="-20" type="qcurve" smooth="yes"/>
      <point x="812" y="-20"/>
      <point x="987" y="95"/>
      <point x="1016" y="149" type="qcurve"/>
      <point x="1016" y="14" type="line" smooth="yes"/>
      <point x="1016" y="-75"/>
      <point x="858" y="-162"/>
      <point x="712" y="-162" type="qcurve" smooth="yes"/>
      <point x="537" y="-162"/>
      <point x="403" y="-110"/>
      <point x="335" y="-61" type="qcurve"/>
    </contour>
    <contour>
      <point x="439" y="520" type="qcurve" smooth="yes"/>
      <point x="439" y="538" type="line" smooth="yes"/>
      <point x="439" y="662"/>
      <point x="567" y="819"/>
      <point x="714" y="819" type="qcurve" smooth="yes"/>
      <point x="839" y="819"/>
      <point x="972" y="712"/>
      <point x="997" y="634" type="qcurve"/>
      <point x="997" y="437" type="line"/>
      <point x="968" y="357"/>
      <point x="835" y="251"/>
      <point x="712" y="251" type="qcurve" smooth="yes"/>
      <point x="566" y="251"/>
      <point x="439" y="409"/>
    </contour>
  </outline>
</glyph>
<glyph name="h" format="1">
  <advance width="1443"/>
  <unicode hex="0068"/>
  <outline>
    <contour>
      <point x="148" y="0" type="line"/>
      <point x="492" y="0" type="line"/>
      <point x="492" y="672" type="line"/>
      <point x="525" y="730"/>
      <point x="640" y="800"/>
      <point x="756" y="800" type="qcurve" smooth="yes"/>
      <point x="883" y="800"/>
      <point x="972" y="724"/>
      <point x="972" y="661" type="qcurve" smooth="yes"/>
      <point x="972" y="0" type="line"/>
      <point x="1314" y="0" type="line"/>
      <point x="1314" y="679" type="line" smooth="yes"/>
      <point x="1314" y="891"/>
      <point x="1082" y="1072"/>
      <point x="886" y="1072" type="qcurve" smooth="yes"/>
      <point x="764" y="1072"/>
      <point x="562" y="992"/>
      <point x="492" y="923" type="qcurve"/>
      <point x="492" y="1536" type="line"/>
      <point x="148" y="1536" type="line"/>
    </contour>
  </outline>
</glyph>
<glyph name="i" format="1">
  <advance width="657"/>
  <unicode hex="0069"/>
  <outline>
    <contour>
      <point x="157" y="0" type="line"/>
      <point x="500" y="0" type="line"/>
      <point x="500" y="1052" type="line"/>
      <point x="157" y="1052" type="line"/>
    </contour>
    <contour>
      <point x="136" y="1370" type="qcurve" smooth="yes"/>
      <point x="136" y="1287"/>
      <point x="236" y="1212"/>
      <point x="328" y="1212" type="qcurve" smooth="yes"/>
      <point x="421" y="1212"/>
      <point x="521" y="1287"/>
      <point x="521" y="1370" type="qcurve" smooth="yes"/>
      <point x="521" y="1454"/>
      <point x="421" y="1529"/>
      <point x="328" y="1529" type="qcurve" smooth="yes"/>
      <point x="236" y="1529"/>
      <point x="136" y="1454"/>
    </contour>
  </outline>
</glyph>
<glyph name="j" format="1">
  <advance width="647"/>
  <unicode hex="006A"/>
  <outline>
    <contour>
      <point x="-165" y="-403" type="line"/>
      <point x="-116" y="-418"/>
      <point x="9" y="-437"/>
      <point x="96" y="-437" type="qcurve" smooth="yes"/>
      <point x="302" y="-437"/>
      <point x="489" y="-249"/>
      <point x="489" y="-76" type="qcurve" smooth="yes"/>
      <point x="489" y="1052" type="line"/>
      <point x="146" y="1052" type="line"/>
      <point x="146" y="-46" type="line" smooth="yes"/>
      <point x="146" y="-85"/>
      <point x="105" y="-112"/>
      <point x="47" y="-112" type="qcurve" smooth="yes"/>
      <point x="-33" y="-112"/>
      <point x="-94" y="-102"/>
      <point x="-165" y="-81" type="qcurve"/>
    </contour>
    <contour>
      <point x="122" y="1370" type="qcurve" smooth="yes"/>
      <point x="122" y="1287"/>
      <point x="221" y="1212"/>
      <point x="314" y="1212" type="qcurve" smooth="yes"/>
      <point x="406" y="1212"/>
      <point x="507" y="1287"/>
      <point x="507" y="1370" type="qcurve" smooth="yes"/>
      <point x="507" y="1454"/>
      <point x="406" y="1529"/>
      <point x="314" y="1529" type="qcurve" smooth="yes"/>
      <point x="221" y="1529"/>
      <point x="122" y="1454"/>
    </contour>
  </outline>
</glyph>
<glyph name="k" format="1">
  <advance width="1316"/>
  <unicode hex="006B"/>
  <outline>
    <contour>
      <point x="946" y="0" type="line"/>
      <point x="1332" y="0" type="line"/>
      <point x="786" y="730" type="line"/>
      <point x="561" y="512" type="line"/>
    </contour>
    <contour>
      <point x="146" y="0" type="line"/>
      <point x="492" y="0" type="line"/>
      <point x="492" y="251" type="line"/>
      <point x="1253" y="1052" type="line"/>
      <point x="932" y="1052" type="line"/>
      <point x="555" y="660" type="line" smooth="yes"/>
      <point x="543" y="647"/>
      <point x="502" y="602"/>
      <point x="492" y="586" type="qcurve"/>
      <point x="492" y="1536" type="line"/>
      <point x="146" y="1536" type="line"/>
    </contour>
  </outline>
</glyph>
<glyph name="m" format="1">
  <advance width="2238"/>
  <unicode hex="006D"/>
  <outline>
    <contour>
      <point x="148" y="0" type="line"/>
      <point x="492" y="0" type="line"/>
      <point x="492" y="689" type="line"/>
      <point x="521" y="735"/>
      <point x="637" y="800"/>
      <point x="740" y="800" type="qcurve" smooth="yes"/>
      <point x="858" y="800"/>
      <point x="952" y="725"/>
      <point x="952" y="662" type="qcurve" smooth="yes"/>
      <point x="952" y="0" type="line"/>
      <point x="1296" y="0" type="line"/>
      <point x="1296" y="690" type="line"/>
      <point x="1340" y="763"/>
      <point x="1459" y="801"/>
      <point x="1544" y="802" type="qcurve" smooth="yes"/>
      <point x="1661" y="801"/>
      <point x="1756" y="723"/>
      <point x="1756" y="662" type="qcurve" smooth="yes"/>
      <point x="1756" y="0" type="line"/>
      <point x="2100" y="0" type="line"/>
      <point x="2100" y="681" type="line" smooth="yes"/>
      <point x="2100" y="863"/>
      <point x="1885" y="1072"/>
      <point x="1685" y="1072" type="qcurve" smooth="yes"/>
      <point x="1526" y="1072"/>
      <point x="1306" y="976"/>
      <point x="1248" y="907" type="qcurve"/>
      <point x="1195" y="989"/>
      <point x="1007" y="1072"/>
      <point x="869" y="1072" type="qcurve" smooth="yes"/>
      <point x="728" y="1072"/>
      <point x="541" y="987"/>
      <point x="488" y="917" type="qcurve"/>
      <point x="486" y="917" type="line"/>
      <point x="475" y="1052" type="line"/>
      <point x="148" y="1052" type="line"/>
    </contour>
  </outline>
</glyph>
<glyph name="n" format="1">
  <advance width="1453"/>
  <unicode hex="006E"/>
  <outline>
    <contour>
      <point x="148" y="0" type="line"/>
      <point x="492" y="0" type="line"/>
      <point x="492" y="672" type="line"/>
      <point x="525" y="730"/>
      <point x="639" y="800"/>
      <point x="755" y="800" type="qcurve" smooth="yes"/>
      <point x="882" y="800"/>
      <point x="971" y="724"/>
      <point x="971" y="661" type="qcurve" smooth="yes"/>
      <point x="971" y="0" type="line"/>
      <point x="1315" y="0" type="line"/>
      <point x="1315" y="679" type="line" smooth="yes"/>
      <point x="1315" y="878"/>
      <point x="1092" y="1072"/>
      <point x="881" y="1072" type="qcurve" smooth="yes"/>
      <point x="736" y="1072"/>
      <point x="549" y="986"/>
      <point x="488" y="917" type="qcurve"/>
      <point x="486" y="917" type="line"/>
      <point x="475" y="1052" type="line"/>
      <point x="148" y="1052" type="line"/>
    </contour>
  </outline>
</glyph>
<glyph name="o" format="1">
  <advance width="1490"/>
  <unicode hex="006F"/>
  <outline>
    <contour>
      <point x="85" y="509" type="line" smooth="yes"/>
      <point x="85" y="286"/>
      <point x="425" y="-40"/>
      <point x="747" y="-40" type="qcurve" smooth="yes"/>
      <point x="1067" y="-40"/>
      <point x="1405" y="286"/>
      <point x="1405" y="509" type="qcurve" smooth="yes"/>
      <point x="1405" y="542" type="line" smooth="yes"/>
      <point x="1405" y="771"/>
      <point x="1075" y="1092"/>
      <point x="744" y="1092" type="qcurve" smooth="yes"/>
      <point x="425" y="1092"/>
      <point x="85" y="765"/>
      <point x="85" y="542" type="qcurve" smooth="yes"/>
    </contour>
    <contour>
      <point x="439" y="540" type="line" smooth="yes"/>
      <point x="439" y="682"/>
      <point x="597" y="823"/>
      <point x="744" y="823" type="qcurve" smooth="yes"/>
      <point x="892" y="823"/>
      <point x="1051" y="682"/>
      <point x="1051" y="540" type="qcurve" smooth="yes"/>
      <point x="1051" y="511" type="line" smooth="yes"/>
      <point x="1051" y="370"/>
      <point x="893" y="229"/>
      <point x="746" y="229" type="qcurve" smooth="yes"/>
      <point x="598" y="229"/>
      <point x="439" y="370"/>
      <point x="439" y="511" type="qcurve" smooth="yes"/>
    </contour>
  </outline>
</glyph>
<glyph name="p" format="1">
  <advance width="1506"/>
  <unicode hex="0070"/>
  <outline>
    <contour>
      <point x="148" y="-416" type="line"/>
      <point x="492" y="-416" type="line"/>
      <point x="492" y="104" type="line"/>
      <point x="533" y="55"/>
      <point x="704" y="-25"/>
      <point x="853" y="-25" type="qcurve" smooth="yes"/>
      <point x="1116" y="-25"/>
      <point x="1421" y="299"/>
      <point x="1421" y="529" type="qcurve" smooth="yes"/>
      <point x="1421" y="550" type="line" smooth="yes"/>
      <point x="1421" y="793"/>
      <point x="1120" y="1092"/>
      <point x="852" y="1092" type="qcurve" smooth="yes"/>
      <point x="752" y="1092"/>
      <point x="548" y="1001"/>
      <point x="487" y="928" type="qcurve"/>
      <point x="469" y="1052" type="line"/>
      <point x="148" y="1052" type="line"/>
    </contour>
    <contour>
      <point x="493" y="390" type="qcurve"/>
      <point x="493" y="673" type="line"/>
      <point x="521" y="722"/>
      <point x="660" y="819"/>
      <point x="787" y="819" type="qcurve" smooth="yes"/>
      <point x="914" y="819"/>
      <point x="1054" y="659"/>
      <point x="1054" y="550" type="qcurve" smooth="yes"/>
      <point x="1054" y="529" type="line" smooth="yes"/>
      <point x="1054" y="418"/>
      <point x="916" y="243"/>
      <point x="767" y="243" type="qcurve" smooth="yes"/>
      <point x="646" y="243"/>
      <point x="517" y="338"/>
    </contour>
  </outline>
</glyph>
<glyph name="q" format="1">
  <advance width="1478"/>
  <unicode hex="0071"/>
  <outline>
    <contour>
      <point x="85" y="519" type="line" smooth="yes"/>
      <point x="85" y="304"/>
      <point x="382" y="-30"/>
      <point x="623" y="-30" type="qcurve" smooth="yes"/>
      <point x="759" y="-30"/>
      <point x="950" y="55"/>
      <point x="996" y="123" type="qcurve"/>
      <point x="996" y="-416" type="line"/>
      <point x="1340" y="-416" type="line"/>
      <point x="1340" y="1052" type="line"/>
      <point x="1017" y="1052" type="line"/>
      <point x="1010" y="925" type="line"/>
      <point x="970" y="996"/>
      <point x="776" y="1090"/>
      <point x="635" y="1090" type="qcurve" smooth="yes"/>
      <point x="389" y="1090"/>
      <point x="85" y="788"/>
      <point x="85" y="539" type="qcurve" smooth="yes"/>
    </contour>
    <contour>
      <point x="438" y="519" type="qcurve" smooth="yes"/>
      <point x="438" y="537" type="line" smooth="yes"/>
      <point x="438" y="669"/>
      <point x="584" y="821"/>
      <point x="720" y="821" type="qcurve" smooth="yes"/>
      <point x="821" y="821"/>
      <point x="964" y="732"/>
      <point x="997" y="658" type="qcurve"/>
      <point x="997" y="404" type="line"/>
      <point x="962" y="329"/>
      <point x="818" y="238"/>
      <point x="718" y="238" type="qcurve" smooth="yes"/>
      <point x="583" y="238"/>
      <point x="438" y="388"/>
    </contour>
  </outline>
</glyph>
<glyph name="r" format="1">
  <advance width="963"/>
  <unicode hex="0072"/>
  <outline>
    <contour>
      <point x="148" y="0" type="line"/>
      <point x="492" y="0" type="line"/>
      <point x="492" y="689" type="line"/>
      <point x="519" y="738"/>
      <point x="646" y="795"/>
      <point x="750" y="795" type="qcurve" smooth="yes"/>
      <point x="814" y="795"/>
      <point x="908" y="788"/>
      <point x="933" y="783" type="qcurve"/>
      <point x="933" y="1074" type="line"/>
      <point x="915" y="1081"/>
      <point x="854" y="1089"/>
      <point x="800" y="1089" type="qcurve" smooth="yes"/>
      <point x="675" y="1089"/>
      <point x="526" y="980"/>
      <point x="492" y="917" type="qcurve"/>
      <point x="487" y="916" type="line"/>
      <point x="476" y="1052" type="line"/>
      <point x="148" y="1052" type="line"/>
    </contour>
  </outline>
</glyph>
<glyph name="s" format="1">
  <advance width="1326"/>
  <unicode hex="0073"/>
  <outline>
    <contour>
      <point x="80" y="312" type="line"/>
      <point x="80" y="309" type="line" smooth="yes"/>
      <point x="80" y="169"/>
      <point x="373" y="-39"/>
      <point x="670" y="-40" type="qcurve" smooth="yes"/>
      <point x="944" y="-41"/>
      <point x="1246" y="155"/>
      <point x="1246" y="307" type="qcurve" smooth="yes"/>
      <point x="1246" y="449"/>
      <point x="1001" y="602"/>
      <point x="781" y="652" type="qcurve" smooth="yes"/>
      <point x="569" y="704"/>
      <point x="470" y="759"/>
      <point x="470" y="788" type="qcurve" smooth="yes"/>
      <point x="470" y="818"/>
      <point x="540" y="824"/>
      <point x="653" y="824" type="qcurve" smooth="yes"/>
      <point x="784" y="824"/>
      <point x="878" y="812"/>
      <point x="878" y="766" type="qcurve" smooth="yes"/>
      <point x="878" y="757" type="line"/>
      <point x="1220" y="757" type="line"/>
      <point x="1220" y="760" type="line" smooth="yes"/>
      <point x="1220" y="886"/>
      <point x="937" y="1094"/>
      <point x="666" y="1094" type="qcurve" smooth="yes"/>
      <point x="403" y="1094"/>
      <point x="126" y="919"/>
      <point x="126" y="786" type="qcurve" smooth="yes"/>
      <point x="126" y="644"/>
      <point x="387" y="500"/>
      <point x="616" y="434" type="qcurve" smooth="yes"/>
      <point x="810" y="378"/>
      <point x="904" y="345"/>
      <point x="904" y="296" type="qcurve" smooth="yes"/>
      <point x="904" y="261"/>
      <point x="802" y="229"/>
      <point x="673" y="229" type="qcurve" smooth="yes"/>
      <point x="543" y="229"/>
      <point x="424" y="267"/>
      <point x="424" y="306" type="qcurve" smooth="yes"/>
      <point x="424" y="312" type="line"/>
    </contour>
  </outline>
</glyph>
<glyph name="t" format="1">
  <advance width="906"/>
  <unicode hex="0074"/>
  <outline>
    <contour>
      <point x="0" y="795" type="line"/>
      <point x="858" y="795" type="line"/>
      <point x="858" y="1052" type="line"/>
      <point x="0" y="1052" type="line"/>
    </contour>
    <contour>
      <point x="233" y="306" type="line" smooth="yes"/>
      <point x="233" y="130"/>
      <point x="431" y="-39"/>
      <point x="598" y="-39" type="qcurve" smooth="yes"/>
      <point x="695" y="-39"/>
      <point x="802" y="-21"/>
      <point x="853" y="0" type="qcurve"/>
      <point x="853" y="247" type="line"/>
      <point x="820" y="240"/>
      <point x="733" y="236"/>
      <point x="666" y="236" type="qcurve" smooth="yes"/>
      <point x="600" y="236"/>
      <point x="575" y="279"/>
      <point x="575" y="322" type="qcurve" smooth="yes"/>
      <point x="575" y="1315" type="line"/>
      <point x="233" y="1315" type="line"/>
      <point x="233" y="940" type="line"/>
      <point x="233" y="911" type="line"/>
    </contour>
  </outline>
</glyph>
<glyph name="u" format="1">
  <advance width="1455"/>
  <unicode hex="0075"/>
  <outline>
    <contour>
      <point x="138" y="384" type="line" smooth="yes"/>
      <point x="138" y="182"/>
      <point x="400" y="-24"/>
      <point x="636" y="-24" type="qcurve" smooth="yes"/>
      <point x="773" y="-24"/>
      <point x="931" y="70"/>
      <point x="978" y="135" type="qcurve"/>
      <point x="988" y="0" type="line"/>
      <point x="1307" y="0" type="line"/>
      <point x="1307" y="1052" type="line"/>
      <point x="963" y="1052" type="line"/>
      <point x="963" y="367" type="line"/>
      <point x="924" y="295"/>
      <point x="797" y="249"/>
      <point x="673" y="249" type="qcurve" smooth="yes"/>
      <point x="559" y="249"/>
      <point x="482" y="353"/>
      <point x="482" y="400" type="qcurve" smooth="yes"/>
      <point x="482" y="1052" type="line"/>
      <point x="138" y="1052" type="line"/>
    </contour>
  </outline>
</glyph>
<glyph name="v" format="1">
  <advance width="1211"/>
  <unicode hex="0076"/>
  <outline>
    <contour>
      <point x="0" y="1052" type="line"/>
      <point x="402" y="0" type="line"/>
      <point x="811" y="0" type="line"/>
      <point x="1211" y="1052" type="line"/>
      <point x="958" y="1052" type="line"/>
      <point x="704" y="358" type="line" smooth="yes"/>
      <point x="698" y="339"/>
      <point x="685" y="319"/>
      <point x="678" y="305" type="qcurve"/>
      <point x="675" y="305" type="line"/>
      <point x="666" y="318"/>
      <point x="641" y="339"/>
      <point x="634" y="358" type="qcurve" smooth="yes"/>
      <point x="367" y="1052" type="line"/>
    </contour>
  </outline>
</glyph>
<glyph name="w" format="1">
  <advance width="1910"/>
  <unicode hex="0077"/>
  <outline>
    <contour>
      <point x="24" y="1052" type="line"/>
      <point x="348" y="0" type="line"/>
      <point x="704" y="0" type="line"/>
      <point x="917" y="671" type="line" smooth="yes"/>
      <point x="929" y="706"/>
      <point x="953" y="771"/>
      <point x="954" y="782" type="qcurve"/>
      <point x="957" y="782" type="line"/>
      <point x="958" y="771"/>
      <point x="979" y="709"/>
      <point x="988" y="678" type="qcurve" smooth="yes"/>
      <point x="1211" y="0" type="line"/>
      <point x="1562" y="0" type="line"/>
      <point x="1886" y="1052" type="line"/>
      <point x="1642" y="1052" type="line"/>
      <point x="1451" y="358" type="line" smooth="yes"/>
      <point x="1444" y="335"/>
      <point x="1437" y="301"/>
      <point x="1437" y="287" type="qcurve"/>
      <point x="1434" y="287" type="line"/>
      <point x="1433" y="301"/>
      <point x="1423" y="333"/>
      <point x="1414" y="359" type="qcurve" smooth="yes"/>
      <point x="1177" y="1052" type="line"/>
      <point x="832" y="1052" type="line"/>
      <point x="600" y="341" type="line" smooth="yes"/>
      <point x="594" y="324"/>
      <point x="588" y="277"/>
      <point x="588" y="287" type="qcurve"/>
      <point x="584" y="287" type="line"/>
      <point x="584" y="278"/>
      <point x="581" y="326"/>
      <point x="577" y="341" type="qcurve" smooth="yes"/>
      <point x="376" y="1052" type="line"/>
    </contour>
  </outline>
</glyph>
<glyph name="x" format="1">
  <advance width="1227"/>
  <unicode hex="0078"/>
  <outline>
    <contour>
      <point x="24" y="0" type="line"/>
      <point x="298" y="0" type="line"/>
      <point x="664" y="471" type="line"/>
      <point x="746" y="471" type="line"/>
      <point x="1192" y="1052" type="line"/>
      <point x="918" y="1052" type="line"/>
      <point x="568" y="590" type="line"/>
      <point x="486" y="590" type="line"/>
    </contour>
    <contour>
      <point x="74" y="1052" type="line"/>
      <point x="460" y="471" type="line"/>
      <point x="491" y="471" type="line"/>
      <point x="792" y="0" type="line"/>
      <point x="1203" y="0" type="line"/>
      <point x="795" y="610" type="line"/>
      <point x="760" y="610" type="line"/>
      <point x="484" y="1052" type="line"/>
    </contour>
  </outline>
</glyph>
<glyph name="y" format="1">
  <advance width="1144"/>
  <unicode hex="0079"/>
  <outline>
    <contour>
      <point x="59" y="-404" type="line"/>
      <point x="104" y="-423"/>
      <point x="210" y="-437"/>
      <point x="292" y="-437" type="qcurve" smooth="yes"/>
      <point x="480" y="-437"/>
      <point x="671" y="-289"/>
      <point x="714" y="-168" type="qcurve" smooth="yes"/>
      <point x="1144" y="1052" type="line"/>
      <point x="881" y="1052" type="line"/>
      <point x="653" y="358" type="line" smooth="yes"/>
      <point x="645" y="334"/>
      <point x="643" y="307"/>
      <point x="639" y="295" type="qcurve"/>
      <point x="637" y="295" type="line"/>
      <point x="634" y="307"/>
      <point x="625" y="336"/>
      <point x="617" y="359" type="qcurve" smooth="yes"/>
      <point x="379" y="1052" type="line"/>
      <point x="8" y="1052" type="line"/>
      <point x="458" y="-124" type="line"/>
      <point x="465" y="-79" type="line"/>
      <point x="425" y="-105"/>
      <point x="316" y="-163"/>
      <point x="273" y="-163" type="qcurve" smooth="yes"/>
      <point x="168" y="-163"/>
      <point x="105" y="-161"/>
      <point x="59" y="-158" type="qcurve"/>
    </contour>
  </outline>
</glyph>
<glyph name="z" format="1">
  <advance width="1162"/>
  <unicode hex="007A"/>
  <outline>
    <contour>
      <point x="68" y="0" type="line"/>
      <point x="1100" y="0" type="line"/>
      <point x="1100" y="266" type="line"/>
      <point x="554" y="266" type="line"/>
      <point x="1082" y="937" type="line"/>
      <point x="1082" y="1052" type="line"/>
      <point x="76" y="1052" type="line"/>
      <point x="76" y="785" type="line"/>
      <point x="580" y="785" type="line"/>
      <point x="68" y="136" type="line"/>
    </contour>
  </outline>
</glyph>
<glyph name="braceleft" format="1">
  <advance width="923"/>
  <unicode hex="007B"/>
  <outline>
    <contour>
      <point x="314" y="312" type="qcurve" smooth="yes"/>
      <point x="255" y="100" type="line" smooth="yes"/>
      <point x="220" y="-24"/>
      <point x="552" y="-312"/>
      <point x="901" y="-312" type="qcurve"/>
      <point x="901" y="-166" type="line"/>
      <point x="722" y="-166"/>
      <point x="555" y="-6"/>
      <point x="596" y="146" type="qcurve" smooth="yes"/>
      <point x="655" y="358" type="line" smooth="yes"/>
      <point x="670" y="412"/>
      <point x="582" y="554"/>
      <point x="458" y="579" type="qcurve"/>
      <point x="583" y="609"/>
      <point x="671" y="745"/>
      <point x="655" y="801" type="qcurve" smooth="yes"/>
      <point x="586" y="1036" type="line" smooth="yes"/>
      <point x="552" y="1153"/>
      <point x="722" y="1315"/>
      <point x="901" y="1315" type="qcurve"/>
      <point x="901" y="1460" type="line"/>
      <point x="552" y="1460"/>
      <point x="219" y="1172"/>
      <point x="255" y="1047" type="qcurve" smooth="yes"/>
      <point x="314" y="845" type="line" smooth="yes"/>
      <point x="352" y="710"/>
      <point x="216" y="645"/>
      <point x="64" y="645" type="qcurve"/>
      <point x="64" y="513" type="line"/>
      <point x="216" y="513"/>
      <point x="351" y="448"/>
    </contour>
  </outline>
</glyph>
<glyph name="braceright" format="1">
  <advance width="923"/>
  <unicode hex="007D"/>
  <outline>
    <contour>
      <point x="609" y="388" type="line"/>
      <point x="592" y="434"/>
      <point x="679" y="468"/>
      <point x="859" y="468" type="qcurve"/>
      <point x="859" y="716" type="line"/>
      <point x="679" y="716"/>
      <point x="592" y="749"/>
      <point x="609" y="795" type="qcurve"/>
      <point x="667" y="980" type="line" smooth="yes"/>
      <point x="721" y="1160"/>
      <point x="351" y="1460"/>
      <point x="22" y="1460" type="qcurve"/>
      <point x="22" y="1201" type="line"/>
      <point x="220" y="1201"/>
      <point x="353" y="1091"/>
      <point x="326" y="1013" type="qcurve" smooth="yes"/>
      <point x="268" y="834" type="line" smooth="yes"/>
      <point x="236" y="728"/>
      <point x="349" y="563"/>
      <point x="465" y="592" type="qcurve"/>
      <point x="350" y="626"/>
      <point x="238" y="455"/>
      <point x="268" y="351" type="qcurve" smooth="yes"/>
      <point x="327" y="157" type="line" smooth="yes"/>
      <point x="351" y="84"/>
      <point x="220" y="-25"/>
      <point x="22" y="-25" type="qcurve"/>
      <point x="22" y="-285" type="line"/>
      <point x="351" y="-285"/>
      <point x="720" y="14"/>
      <point x="668" y="194" type="qcurve" smooth="yes"/>
    </contour>
  </outline>
</glyph>
<glyph name="asciitilde" format="1">
  <advance width="1544"/>
  <unicode hex="007E"/>
  <outline>
    <contour>
      <point x="860" y="722" type="qcurve"/>
      <point x="749" y="792"/>
      <point x="586" y="838"/>
      <point x="476" y="838" type="qcurve" smooth="yes"/>
      <point x="280" y="838"/>
      <point x="20" y="615"/>
      <point x="20" y="381" type="qcurve"/>
      <point x="357" y="381" type="line"/>
      <point x="357" y="502"/>
      <point x="406" y="550"/>
      <point x="455" y="550" type="qcurve" smooth="yes"/>
      <point x="524" y="550"/>
      <point x="612" y="516"/>
      <point x="689" y="473" type="qcurve" smooth="yes"/>
      <point x="766" y="427"/>
      <point x="928" y="377"/>
      <point x="1039" y="377" type="qcurve" smooth="yes"/>
      <point x="1236" y="377"/>
      <point x="1495" y="601"/>
      <point x="1495" y="834" type="qcurve"/>
      <point x="1158" y="834" type="line"/>
      <point x="1158" y="713"/>
      <point x="1111" y="667"/>
      <point x="1060" y="667" type="qcurve" smooth="yes"/>
      <point x="990" y="667"/>
      <point x="910" y="696"/>
    </contour>
  </outline>
</glyph>
<glyph name="exclamdown" format="1">
  <advance width="788"/>
  <unicode hex="00A1"/>
  <outline>
    <contour>
      <point x="234" y="826" type="line"/>
      <point x="216" y="-255" type="line"/>
      <point x="570" y="-255" type="line"/>
      <point x="554" y="826" type="line"/>
    </contour>
    <contour>
      <point x="189" y="1052" type="qcurve" smooth="yes"/>
      <point x="189" y="980"/>
      <point x="295" y="881"/>
      <point x="393" y="881" type="qcurve" smooth="yes"/>
      <point x="488" y="881"/>
      <point x="599" y="979"/>
      <point x="599" y="1051" type="qcurve" smooth="yes"/>
      <point x="599" y="1122"/>
      <point x="488" y="1221"/>
      <point x="393" y="1221" type="qcurve" smooth="yes"/>
      <point x="296" y="1221"/>
      <point x="189" y="1123"/>
    </contour>
  </outline>
</glyph>
<glyph name="cent" format="1">
  <advance width="1491"/>
  <unicode hex="00A2"/>
  <outline>
    <contour>
      <point x="607" y="472" type="line"/>
      <point x="892" y="472" type="line"/>
      <point x="892" y="907" type="line"/>
      <point x="899" y="937" type="line"/>
      <point x="899" y="1284" type="line"/>
      <point x="600" y="1284" type="line"/>
      <point x="600" y="934" type="line"/>
      <point x="607" y="909" type="line"/>
    </contour>
    <contour>
      <point x="600" y="-214" type="line"/>
      <point x="899" y="-214" type="line"/>
      <point x="899" y="117" type="line"/>
      <point x="892" y="148" type="line"/>
      <point x="892" y="605" type="line"/>
      <point x="607" y="605" type="line"/>
      <point x="607" y="149" type="line"/>
      <point x="600" y="123" type="line"/>
    </contour>
    <contour>
      <point x="84" y="530" type="line" smooth="yes"/>
      <point x="84" y="312"/>
      <point x="426" y="-9"/>
      <point x="748" y="-9" type="qcurve" smooth="yes"/>
      <point x="1068" y="-9"/>
      <point x="1351" y="234"/>
      <point x="1351" y="370" type="qcurve" smooth="yes"/>
      <point x="1351" y="445" type="line"/>
      <point x="1019" y="445" type="line"/>
      <point x="1019" y="370" type="line" smooth="yes"/>
      <point x="1019" y="336"/>
      <point x="913" y="257"/>
      <point x="748" y="257" type="qcurve" smooth="yes"/>
      <point x="589" y="257"/>
      <point x="430" y="413"/>
      <point x="430" y="530" type="qcurve" smooth="yes"/>
      <point x="430" y="550" type="line" smooth="yes"/>
      <point x="430" y="666"/>
      <point x="592" y="813"/>
      <point x="748" y="813" type="qcurve" smooth="yes"/>
      <point x="905" y="813"/>
      <point x="1019" y="708"/>
      <point x="1019" y="672" type="qcurve" smooth="yes"/>
      <point x="1019" y="603" type="line"/>
      <point x="1351" y="603" type="line"/>
      <point x="1351" y="672" type="line" smooth="yes"/>
      <point x="1351" y="828"/>
      <point x="1058" y="1078"/>
      <point x="748" y="1078" type="qcurve" smooth="yes"/>
      <point x="449" y="1078"/>
      <point x="84" y="777"/>
      <point x="84" y="550" type="qcurve" smooth="yes"/>
    </contour>
  </outline>
</glyph>
<glyph name="sterling" format="1">
  <advance width="1494"/>
  <unicode hex="00A3"/>
  <outline>
    <contour>
      <point x="130" y="0" type="line"/>
      <point x="1431" y="0" type="line"/>
      <point x="1431" y="270" type="line"/>
      <point x="542" y="207" type="line"/>
      <point x="611" y="198"/>
      <point x="672" y="354"/>
      <point x="672" y="430" type="qcurve" smooth="yes"/>
      <point x="672" y="520"/>
      <point x="596" y="957"/>
      <point x="596" y="1050" type="qcurve" smooth="yes"/>
      <point x="596" y="1110"/>
      <point x="705" y="1204"/>
      <point x="810" y="1204" type="qcurve" smooth="yes"/>
      <point x="918" y="1204"/>
      <point x="1024" y="1123"/>
      <point x="1024" y="1056" type="qcurve" smooth="yes"/>
      <point x="1024" y="950" type="line"/>
      <point x="1375" y="950" type="line"/>
      <point x="1375" y="1056" type="line" smooth="yes"/>
      <point x="1375" y="1243"/>
      <point x="1081" y="1474"/>
      <point x="828" y="1474" type="qcurve" smooth="yes"/>
      <point x="583" y="1474"/>
      <point x="250" y="1230"/>
      <point x="250" y="1058" type="qcurve" smooth="yes"/>
      <point x="250" y="906"/>
      <point x="341" y="505"/>
      <point x="341" y="416" type="qcurve" smooth="yes"/>
      <point x="341" y="344"/>
      <point x="285" y="270"/>
      <point x="217" y="270" type="qcurve" smooth="yes"/>
      <point x="130" y="270" type="line"/>
    </contour>
    <contour>
      <point x="1156" y="624" type="line"/>
      <point x="1156" y="894" type="line"/>
      <point x="91" y="894" type="line"/>
      <point x="91" y="624" type="line"/>
    </contour>
  </outline>
</glyph>
<glyph name="currency" format="1">
  <advance width="1768"/>
  <unicode hex="00A4"/>
  <outline>
    <contour>
      <point x="466" y="631" type="qcurve" smooth="yes"/>
      <point x="466" y="783"/>
      <point x="703" y="981"/>
      <point x="888" y="981" type="qcurve" smooth="yes"/>
      <point x="1066" y="981"/>
      <point x="1309" y="775"/>
      <point x="1309" y="631" type="qcurve" smooth="yes"/>
      <point x="1309" y="482"/>
      <point x="1074" y="281"/>
      <point x="888" y="281" type="qcurve" smooth="yes"/>
      <point x="712" y="281"/>
      <point x="466" y="489"/>
    </contour>
    <contour>
      <point x="135" y="631" type="qcurve" smooth="yes"/>
      <point x="135" y="363"/>
      <point x="580" y="1"/>
      <point x="888" y="1" type="qcurve" smooth="yes"/>
      <point x="1185" y="1"/>
      <point x="1642" y="370"/>
      <point x="1642" y="631" type="qcurve" smooth="yes"/>
      <point x="1642" y="899"/>
      <point x="1197" y="1260"/>
      <point x="888" y="1260" type="qcurve" smooth="yes"/>
      <point x="599" y="1260"/>
      <point x="135" y="888"/>
    </contour>
    <contour>
      <point x="1725" y="1106" type="line"/>
      <point x="1479" y="1315" type="line"/>
      <point x="1150" y="1043" type="line"/>
      <point x="1396" y="834" type="line"/>
    </contour>
    <contour>
      <point x="633" y="240" type="line"/>
      <point x="387" y="447" type="line"/>
      <point x="57" y="177" type="line"/>
      <point x="303" y="-31" type="line"/>
    </contour>
    <contour>
      <point x="1479" y="-32" type="line"/>
      <point x="1726" y="177" type="line"/>
      <point x="1396" y="447" type="line"/>
      <point x="1149" y="239" type="line"/>
    </contour>
    <contour>
      <point x="387" y="834" type="line"/>
      <point x="632" y="1043" type="line"/>
      <point x="303" y="1314" type="line"/>
      <point x="58" y="1106" type="line"/>
    </contour>
  </outline>
</glyph>
<glyph name="yen" format="1">
  <advance width="1356"/>
  <unicode hex="00A5"/>
  <outline>
    <contour>
      <point x="44" y="531" type="line"/>
      <point x="1313" y="531" type="line"/>
      <point x="1313" y="790" type="line"/>
      <point x="44" y="790" type="line"/>
    </contour>
    <contour>
      <point x="44" y="248" type="line"/>
      <point x="1313" y="248" type="line"/>
      <point x="1313" y="506" type="line"/>
      <point x="44" y="506" type="line"/>
    </contour>
    <contour>
      <point x="-38" y="1456" type="line"/>
      <point x="502" y="540" type="line"/>
      <point x="502" y="0" type="line"/>
      <point x="843" y="0" type="line"/>
      <point x="843" y="541" type="line"/>
      <point x="1395" y="1456" type="line"/>
      <point x="1000" y="1456" type="line"/>
      <point x="679" y="855" type="line" smooth="yes"/>
      <point x="662" y="824"/>
      <point x="630" y="771"/>
      <point x="636" y="790" type="qcurve"/>
      <point x="720" y="790" type="line"/>
      <point x="727" y="770"/>
      <point x="690" y="837"/>
      <point x="680" y="855" type="qcurve" smooth="yes"/>
      <point x="348" y="1456" type="line"/>
    </contour>
  </outline>
</glyph>
<glyph name="section" format="1">
  <advance width="1514"/>
  <unicode hex="00A7"/>
  <outline>
    <contour>
      <point x="1380" y="-18" type="qcurve" smooth="yes"/>
      <point x="1380" y="100"/>
      <point x="1237" y="252"/>
      <point x="1074" y="263" type="qcurve"/>
      <point x="1189" y="219"/>
      <point x="1380" y="363"/>
      <point x="1380" y="500" type="qcurve" smooth="yes"/>
      <point x="1380" y="662"/>
      <point x="1122" y="816"/>
      <point x="906" y="880" type="qcurve" smooth="yes"/>
      <point x="672" y="953"/>
      <point x="539" y="1022"/>
      <point x="539" y="1059" type="qcurve" smooth="yes"/>
      <point x="539" y="1101"/>
      <point x="636" y="1155"/>
      <point x="783" y="1155" type="qcurve" smooth="yes"/>
      <point x="924" y="1155"/>
      <point x="1044" y="1086"/>
      <point x="1044" y="1025" type="qcurve" smooth="yes"/>
      <point x="1044" y="943" type="line"/>
      <point x="1360" y="943" type="line"/>
      <point x="1360" y="1021" type="line" smooth="yes"/>
      <point x="1360" y="1217"/>
      <point x="1045" y="1431"/>
      <point x="788" y="1431" type="qcurve" smooth="yes"/>
      <point x="553" y="1431"/>
      <point x="211" y="1206"/>
      <point x="211" y="1049" type="qcurve" smooth="yes"/>
      <point x="211" y="947"/>
      <point x="308" y="811"/>
      <point x="291" y="832" type="qcurve"/>
      <point x="288" y="839"/>
      <point x="136" y="681"/>
      <point x="136" y="560" type="qcurve" smooth="yes"/>
      <point x="136" y="394"/>
      <point x="404" y="225"/>
      <point x="638" y="159" type="qcurve" smooth="yes"/>
      <point x="890" y="86"/>
      <point x="1053" y="9"/>
      <point x="1053" y="-28" type="qcurve" smooth="yes"/>
      <point x="1053" y="-71"/>
      <point x="912" y="-139"/>
      <point x="753" y="-139" type="qcurve" smooth="yes"/>
      <point x="600" y="-139"/>
      <point x="441" y="-56"/>
      <point x="441" y="7" type="qcurve" smooth="yes"/>
      <point x="441" y="90" type="line"/>
      <point x="126" y="90" type="line"/>
      <point x="126" y="10" type="line" smooth="yes"/>
      <point x="126" y="-191"/>
      <point x="480" y="-412"/>
      <point x="748" y="-412" type="qcurve" smooth="yes"/>
      <point x="1030" y="-412"/>
      <point x="1380" y="-201"/>
    </contour>
    <contour>
      <point x="755" y="408" type="qcurve" smooth="yes"/>
      <point x="594" y="445"/>
      <point x="441" y="525"/>
      <point x="441" y="576" type="qcurve" smooth="yes"/>
      <point x="441" y="648"/>
      <point x="582" y="699"/>
      <point x="672" y="670" type="qcurve" smooth="yes"/>
      <point x="893" y="589"/>
      <point x="1065" y="526"/>
      <point x="1065" y="485" type="qcurve" smooth="yes"/>
      <point x="1065" y="452"/>
      <point x="876" y="381"/>
    </contour>
  </outline>
</glyph>
<glyph name="dieresis" format="1">
  <advance width="1291"/>
  <unicode hex="00A8"/>
  <outline>
    <contour>
      <point x="187" y="1163" type="qcurve" smooth="yes"/>
      <point x="187" y="1092"/>
      <point x="293" y="1001"/>
      <point x="378" y="1001" type="qcurve" smooth="yes"/>
      <point x="465" y="1001"/>
      <point x="571" y="1092"/>
      <point x="571" y="1163" type="qcurve" smooth="yes"/>
      <point x="571" y="1235"/>
      <point x="466" y="1328"/>
      <point x="378" y="1328" type="qcurve" smooth="yes"/>
      <point x="292" y="1328"/>
      <point x="187" y="1235"/>
    </contour>
    <contour>
      <point x="720" y="1161" type="qcurve" smooth="yes"/>
      <point x="720" y="1090"/>
      <point x="824" y="1000"/>
      <point x="911" y="1000" type="qcurve" smooth="yes"/>
      <point x="997" y="1000"/>
      <point x="1104" y="1089"/>
      <point x="1104" y="1161" type="qcurve" smooth="yes"/>
      <point x="1104" y="1233"/>
      <point x="998" y="1326"/>
      <point x="911" y="1326" type="qcurve" smooth="yes"/>
      <point x="823" y="1326"/>
      <point x="720" y="1233"/>
    </contour>
  </outline>
</glyph>
<glyph name="copyright" format="1">
  <advance width="2135"/>
  <unicode hex="00A9"/>
  <outline>
    <contour>
      <point x="399" y="702" type="qcurve" smooth="yes"/>
      <point x="399" y="912"/>
      <point x="768" y="1215"/>
      <point x="1069" y="1215" type="qcurve" smooth="yes"/>
      <point x="1354" y="1215"/>
      <point x="1734" y="902"/>
      <point x="1734" y="702" type="qcurve" smooth="yes"/>
      <point x="1734" y="479"/>
      <point x="1371" y="185"/>
      <point x="1069" y="185" type="qcurve" smooth="yes"/>
      <point x="782" y="185"/>
      <point x="399" y="501"/>
    </contour>
    <contour>
      <point x="94" y="702" type="qcurve" smooth="yes"/>
      <point x="94" y="365"/>
      <point x="687" y="-75"/>
      <point x="1069" y="-75" type="qcurve" smooth="yes"/>
      <point x="1462" y="-75"/>
      <point x="2041" y="358"/>
      <point x="2041" y="702" type="qcurve" smooth="yes"/>
      <point x="2041" y="1037"/>
      <point x="1450" y="1477"/>
      <point x="1069" y="1477" type="qcurve" smooth="yes"/>
      <point x="687" y="1477"/>
      <point x="94" y="1037"/>
    </contour>
    <contour>
      <point x="517" y="674" type="line" smooth="yes"/>
      <point x="517" y="473"/>
      <point x="843" y="230"/>
      <point x="1067" y="230" type="qcurve" smooth="yes"/>
      <point x="1287" y="230"/>
      <point x="1569" y="416"/>
      <point x="1574" y="555" type="qcurve" smooth="yes"/>
      <point x="1577" y="656" type="line"/>
      <point x="1271" y="656" type="line"/>
      <point x="1262" y="573" type="line" smooth="yes"/>
      <point x="1257" y="527"/>
      <point x="1171" y="494"/>
      <point x="1069" y="494" type="qcurve" smooth="yes"/>
      <point x="963" y="494"/>
      <point x="850" y="593"/>
      <point x="850" y="674" type="qcurve" smooth="yes"/>
      <point x="850" y="755" type="line" smooth="yes"/>
      <point x="850" y="848"/>
      <point x="963" y="938"/>
      <point x="1071" y="938" type="qcurve" smooth="yes"/>
      <point x="1183" y="938"/>
      <point x="1266" y="890"/>
      <point x="1266" y="859" type="qcurve" smooth="yes"/>
      <point x="1266" y="760" type="line"/>
      <point x="1578" y="760" type="line"/>
      <point x="1574" y="867" type="line" smooth="yes"/>
      <point x="1570" y="1011"/>
      <point x="1293" y="1199"/>
      <point x="1064" y="1199" type="qcurve" smooth="yes"/>
      <point x="837" y="1199"/>
      <point x="517" y="958"/>
      <point x="517" y="754" type="qcurve" smooth="yes"/>
    </contour>
  </outline>
</glyph>
<glyph name="ordfeminine" format="1">
  <advance width="1212"/>
  <unicode hex="00AA"/>
  <outline>
    <contour>
      <point x="91" y="818" type="qcurve" smooth="yes"/>
      <point x="91" y="678"/>
      <point x="346" y="533"/>
      <point x="499" y="533" type="qcurve" smooth="yes"/>
      <point x="654" y="533"/>
      <point x="868" y="623"/>
      <point x="865" y="666" type="qcurve"/>
      <point x="811" y="662"/>
      <point x="837" y="594"/>
      <point x="880" y="546" type="qcurve"/>
      <point x="1157" y="546" type="line"/>
      <point x="1157" y="647" type="line"/>
      <point x="1137" y="680"/>
      <point x="1118" y="753"/>
      <point x="1118" y="774" type="qcurve" smooth="yes"/>
      <point x="1118" y="1104" type="line" smooth="yes"/>
      <point x="1118" y="1266"/>
      <point x="849" y="1419"/>
      <point x="625" y="1419" type="qcurve" smooth="yes"/>
      <point x="429" y="1419"/>
      <point x="143" y="1263"/>
      <point x="143" y="1138" type="qcurve" smooth="yes"/>
      <point x="143" y="1049" type="line"/>
      <point x="474" y="1049" type="line"/>
      <point x="474" y="1140" type="line" smooth="yes"/>
      <point x="474" y="1143"/>
      <point x="539" y="1167"/>
      <point x="636" y="1167" type="qcurve" smooth="yes"/>
      <point x="735" y="1167"/>
      <point x="805" y="1122"/>
      <point x="805" y="1089" type="qcurve"/>
      <point x="805" y="1123" type="line"/>
      <point x="605" y="1123" type="line" smooth="yes"/>
      <point x="376" y="1123"/>
      <point x="91" y="960"/>
    </contour>
    <contour>
      <point x="432" y="836" type="qcurve" smooth="yes"/>
      <point x="432" y="850"/>
      <point x="543" y="882"/>
      <point x="671" y="882" type="qcurve" smooth="yes"/>
      <point x="805" y="882" type="line"/>
      <point x="805" y="876" type="line"/>
      <point x="802" y="855"/>
      <point x="689" y="789"/>
      <point x="585" y="789" type="qcurve" smooth="yes"/>
      <point x="497" y="789"/>
      <point x="432" y="821"/>
    </contour>
  </outline>
</glyph>
<glyph name="guillemetleft" format="1">
  <advance width="1445"/>
  <unicode hex="00AB"/>
  <outline>
    <contour>
      <point x="540" y="177" type="line"/>
      <point x="912" y="177" type="line"/>
      <point x="486" y="592" type="line"/>
      <point x="912" y="1006" type="line"/>
      <point x="541" y="1006" type="line"/>
      <point x="78" y="633" type="line"/>
      <point x="78" y="552" type="line"/>
    </contour>
    <contour>
      <point x="1109" y="177" type="line"/>
      <point x="1481" y="177" type="line"/>
      <point x="1055" y="592" type="line"/>
      <point x="1481" y="1006" type="line"/>
      <point x="1110" y="1006" type="line"/>
      <point x="647" y="633" type="line"/>
      <point x="647" y="552" type="line"/>
    </contour>
  </outline>
</glyph>
<glyph name="logicalnot" format="1">
  <advance width="1501"/>
  <unicode hex="00AC"/>
  <outline>
    <contour>
      <point x="137" y="833" type="line"/>
      <point x="137" y="544" type="line"/>
      <point x="1060" y="544" type="line"/>
      <point x="1060" y="329" type="line"/>
      <point x="1389" y="329" type="line"/>
      <point x="1389" y="833" type="line"/>
    </contour>
  </outline>
</glyph>
<glyph name="registered" format="1">
  <advance width="2135"/>
  <unicode hex="00AE"/>
  <outline>
    <contour>
      <point x="399" y="702" type="qcurve" smooth="yes"/>
      <point x="399" y="912"/>
      <point x="768" y="1215"/>
      <point x="1069" y="1215" type="qcurve" smooth="yes"/>
      <point x="1354" y="1215"/>
      <point x="1734" y="902"/>
      <point x="1734" y="702" type="qcurve" smooth="yes"/>
      <point x="1734" y="479"/>
      <point x="1371" y="185"/>
      <point x="1069" y="185" type="qcurve" smooth="yes"/>
      <point x="782" y="185"/>
      <point x="399" y="501"/>
    </contour>
    <contour>
      <point x="94" y="702" type="qcurve" smooth="yes"/>
      <point x="94" y="365"/>
      <point x="687" y="-75"/>
      <point x="1069" y="-75" type="qcurve" smooth="yes"/>
      <point x="1462" y="-75"/>
      <point x="2041" y="358"/>
      <point x="2041" y="702" type="qcurve" smooth="yes"/>
      <point x="2041" y="1037"/>
      <point x="1450" y="1476"/>
      <point x="1069" y="1476" type="qcurve" smooth="yes"/>
      <point x="687" y="1476"/>
      <point x="94" y="1037"/>
    </contour>
    <contour>
      <point x="995" y="671" type="line"/>
      <point x="1288" y="261" type="line"/>
      <point x="1643" y="261" type="line"/>
      <point x="1276" y="769" type="line"/>
    </contour>
    <contour>
      <point x="1175" y="543" type="line"/>
      <point x="1265" y="579" type="line"/>
      <point x="1371" y="609"/>
      <point x="1518" y="758"/>
      <point x="1518" y="858" type="qcurve" smooth="yes"/>
      <point x="1518" y="1008"/>
      <point x="1269" y="1163"/>
      <point x="1078" y="1163" type="qcurve" smooth="yes"/>
      <point x="655" y="1163" type="line"/>
      <point x="655" y="262" type="line"/>
      <point x="966" y="262" type="line"/>
      <point x="966" y="543" type="line"/>
    </contour>
    <contour>
      <point x="966" y="920" type="line"/>
      <point x="1074" y="920" type="line" smooth="yes"/>
      <point x="1156" y="921"/>
      <point x="1205" y="890"/>
      <point x="1205" y="852" type="qcurve" smooth="yes"/>
      <point x="1205" y="828"/>
      <point x="1151" y="787"/>
      <point x="1108" y="787" type="qcurve" smooth="yes"/>
      <point x="966" y="787" type="line"/>
    </contour>
  </outline>
</glyph>
<glyph name="macron" format="1">
  <advance width="1287"/>
  <unicode hex="00AF"/>
  <outline>
    <contour>
      <point x="1090" y="1295" type="line"/>
      <point x="197" y="1295" type="line"/>
      <point x="197" y="1027" type="line"/>
      <point x="1090" y="1027" type="line"/>
    </contour>
  </outline>
</glyph>
<glyph name="degree" format="1">
  <advance width="1153"/>
  <unicode hex="00B0"/>
  <outline>
    <contour>
      <point x="128" y="1072" type="qcurve" smooth="yes"/>
      <point x="128" y="919"/>
      <point x="393" y="724"/>
      <point x="580" y="724" type="qcurve" smooth="yes"/>
      <point x="764" y="724"/>
      <point x="1025" y="920"/>
      <point x="1025" y="1072" type="qcurve" smooth="yes"/>
      <point x="1025" y="1227"/>
      <point x="764" y="1423"/>
      <point x="580" y="1423" type="qcurve" smooth="yes"/>
      <point x="392" y="1423"/>
      <point x="128" y="1227"/>
    </contour>
    <contour>
      <point x="425" y="1073" type="qcurve" smooth="yes"/>
      <point x="425" y="1103"/>
      <point x="507" y="1155"/>
      <point x="579" y="1155" type="qcurve" smooth="yes"/>
      <point x="648" y="1155"/>
      <point x="728" y="1103"/>
      <point x="728" y="1073" type="qcurve" smooth="yes"/>
      <point x="728" y="1043"/>
      <point x="649" y="993"/>
      <point x="579" y="993" type="qcurve" smooth="yes"/>
      <point x="507" y="993"/>
      <point x="425" y="1044"/>
    </contour>
  </outline>
</glyph>
<glyph name="plusminus" format="1">
  <advance width="1501"/>
  <unicode hex="00B1"/>
  <outline>
    <contour>
      <point x="127" y="536" type="line"/>
      <point x="1374" y="536" type="line"/>
      <point x="1374" y="810" type="line"/>
      <point x="127" y="810" type="line"/>
    </contour>
    <contour>
      <point x="585" y="200" type="line"/>
      <point x="914" y="200" type="line"/>
      <point x="914" y="1187" type="line"/>
      <point x="585" y="1187" type="line"/>
    </contour>
    <contour>
      <point x="150" y="1" type="line"/>
      <point x="1345" y="1" type="line"/>
      <point x="1345" y="275" type="line"/>
      <point x="150" y="275" type="line"/>
    </contour>
  </outline>
</glyph>
<glyph name="acute" format="1">
  <advance width="1226"/>
  <unicode hex="00B4"/>
  <outline>
    <contour>
      <point x="614" y="1406" type="line"/>
      <point x="317" y="1113" type="line"/>
      <point x="317" y="1007" type="line"/>
      <point x="604" y="1007" type="line"/>
      <point x="1070" y="1406" type="line"/>
    </contour>
  </outline>
</glyph>
<glyph name="mu.math" format="1">
  <advance width="1463"/>
  <unicode hex="00B5"/>
  <outline>
    <contour>
      <point x="716" y="-18" type="qcurve" smooth="yes"/>
      <point x="833" y="-18"/>
      <point x="1026" y="59"/>
      <point x="996" y="16" type="qcurve"/>
      <point x="999" y="0" type="line"/>
      <point x="1315" y="0" type="line"/>
      <point x="1315" y="1052" type="line"/>
      <point x="972" y="1052" type="line"/>
      <point x="972" y="337" type="line"/>
      <point x="948" y="299"/>
      <point x="829" y="247"/>
      <point x="706" y="247" type="qcurve" smooth="yes"/>
      <point x="610" y="247"/>
      <point x="489" y="323"/>
      <point x="489" y="468" type="qcurve" smooth="yes"/>
      <point x="489" y="1052" type="line"/>
      <point x="148" y="1052" type="line"/>
      <point x="148" y="-363" type="line"/>
      <point x="482" y="-363" type="line"/>
      <point x="425" y="65" type="line"/>
      <point x="453" y="20"/>
      <point x="628" y="-18"/>
    </contour>
  </outline>
</glyph>
<glyph name="paragraph" format="1">
  <advance width="1721"/>
  <unicode hex="00B6"/>
  <outline>
    <contour>
      <point x="1083" y="-183" type="line"/>
      <point x="1427" y="-183" type="line"/>
      <point x="1427" y="1152" type="line"/>
      <point x="1646" y="1152" type="line"/>
      <point x="1646" y="1454" type="line"/>
      <point x="1427" y="1454" type="line"/>
      <point x="1427" y="1456" type="line"/>
      <point x="651" y="1456" type="line" smooth="yes"/>
      <point x="417" y="1456"/>
      <point x="94" y="1175"/>
      <point x="94" y="965" type="qcurve" smooth="yes"/>
      <point x="94" y="755"/>
      <point x="417" y="475"/>
      <point x="651" y="475" type="qcurve" smooth="yes"/>
      <point x="655" y="475" type="line"/>
      <point x="655" y="-183" type="line"/>
      <point x="999" y="-183" type="line"/>
      <point x="999" y="1152" type="line"/>
      <point x="1083" y="1152" type="line"/>
    </contour>
  </outline>
</glyph>
<glyph name="periodcentered" format="1">
  <advance width="755"/>
  <unicode hex="00B7"/>
  <outline>
    <contour>
      <point x="161" y="703" type="qcurve" smooth="yes"/>
      <point x="161" y="626"/>
      <point x="280" y="529"/>
      <point x="378" y="529" type="qcurve" smooth="yes"/>
      <point x="475" y="529"/>
      <point x="594" y="626"/>
      <point x="594" y="703" type="qcurve" smooth="yes"/>
      <point x="594" y="781"/>
      <point x="475" y="878"/>
      <point x="378" y="878" type="qcurve" smooth="yes"/>
      <point x="280" y="878"/>
      <point x="161" y="781"/>
    </contour>
  </outline>
</glyph>
<glyph name="cedilla" format="1">
  <advance width="1245"/>
  <unicode hex="00B8"/>
  <outline>
    <contour>
      <point x="511" y="133" type="line"/>
      <point x="393" y="-188" type="line"/>
      <point x="610" y="-188"/>
      <point x="673" y="-209"/>
      <point x="673" y="-200" type="qcurve" smooth="yes"/>
      <point x="673" y="-190"/>
      <point x="545" y="-224"/>
      <point x="295" y="-224" type="qcurve"/>
      <point x="312" y="-467" type="line"/>
      <point x="702" y="-467"/>
      <point x="985" y="-311"/>
      <point x="985" y="-192" type="qcurve" smooth="yes"/>
      <point x="985" y="-86"/>
      <point x="812" y="16"/>
      <point x="754" y="21" type="qcurve"/>
      <point x="808" y="133" type="line"/>
    </contour>
  </outline>
</glyph>
<glyph name="ordmasculine" format="1">
  <advance width="1285"/>
  <unicode hex="00BA"/>
  <outline>
    <contour>
      <point x="78" y="958" type="line" smooth="yes"/>
      <point x="78" y="774"/>
      <point x="378" y="527"/>
      <point x="642" y="527" type="qcurve" smooth="yes"/>
      <point x="899" y="527"/>
      <point x="1207" y="767"/>
      <point x="1207" y="934" type="qcurve" smooth="yes"/>
      <point x="1207" y="999" type="line" smooth="yes"/>
      <point x="1207" y="1179"/>
      <point x="905" y="1420"/>
      <point x="639" y="1420" type="qcurve" smooth="yes"/>
      <point x="385" y="1420"/>
      <point x="78" y="1179"/>
      <point x="78" y="1014" type="qcurve" smooth="yes"/>
    </contour>
    <contour>
      <point x="414" y="1021" type="line" smooth="yes"/>
      <point x="414" y="1063"/>
      <point x="514" y="1159"/>
      <point x="640" y="1159" type="qcurve" smooth="yes"/>
      <point x="770" y="1159"/>
      <point x="871" y="1060"/>
      <point x="871" y="1005" type="qcurve" smooth="yes"/>
      <point x="871" y="942" type="line" smooth="yes"/>
      <point x="871" y="894"/>
      <point x="768" y="788"/>
      <point x="643" y="788" type="qcurve" smooth="yes"/>
      <point x="516" y="788"/>
      <point x="414" y="899"/>
      <point x="414" y="965" type="qcurve" smooth="yes"/>
    </contour>
  </outline>
</glyph>
<glyph name="guillemetright" format="1">
  <advance width="1446"/>
  <unicode hex="00BB"/>
  <outline>
    <contour>
      <point x="905" y="1006" type="line"/>
      <point x="533" y="1006" type="line"/>
      <point x="959" y="592" type="line"/>
      <point x="533" y="177" type="line"/>
      <point x="904" y="177" type="line"/>
      <point x="1368" y="551" type="line"/>
      <point x="1368" y="631" type="line"/>
    </contour>
    <contour>
      <point x="336" y="1006" type="line"/>
      <point x="-36" y="1006" type="line"/>
      <point x="390" y="592" type="line"/>
      <point x="-36" y="177" type="line"/>
      <point x="335" y="177" type="line"/>
      <point x="798" y="551" type="line"/>
      <point x="798" y="631" type="line"/>
    </contour>
  </outline>
</glyph>
<glyph name="questiondown" format="1">
  <advance width="1234"/>
  <unicode hex="00BF"/>
  <outline>
    <contour>
      <point x="499" y="826" type="line"/>
      <point x="499" y="761" type="line" smooth="yes"/>
      <point x="499" y="709"/>
      <point x="459" y="611"/>
      <point x="373" y="552" type="qcurve" smooth="yes"/>
      <point x="283" y="489"/>
      <point x="96" y="283"/>
      <point x="96" y="136" type="qcurve" smooth="yes"/>
      <point x="96" y="-53"/>
      <point x="384" y="-274"/>
      <point x="628" y="-274" type="qcurve" smooth="yes"/>
      <point x="870" y="-274"/>
      <point x="1174" y="-66"/>
      <point x="1174" y="117" type="qcurve" smooth="yes"/>
      <point x="1174" y="199" type="line"/>
      <point x="831" y="199" type="line"/>
      <point x="831" y="117" type="line" smooth="yes"/>
      <point x="831" y="64"/>
      <point x="729" y="1"/>
      <point x="628" y="1" type="qcurve" smooth="yes"/>
      <point x="531" y="1"/>
      <point x="440" y="67"/>
      <point x="440" y="132" type="qcurve" smooth="yes"/>
      <point x="440" y="200"/>
      <point x="544" y="306"/>
      <point x="640" y="380" type="qcurve" smooth="yes"/>
      <point x="758" y="470"/>
      <point x="843" y="626"/>
      <point x="843" y="758" type="qcurve" smooth="yes"/>
      <point x="843" y="826" type="line"/>
    </contour>
    <contour>
      <point x="866" y="1051" type="qcurve" smooth="yes"/>
      <point x="866" y="1122"/>
      <point x="756" y="1220"/>
      <point x="662" y="1220" type="qcurve" smooth="yes"/>
      <point x="567" y="1220"/>
      <point x="457" y="1122"/>
      <point x="457" y="1051" type="qcurve" smooth="yes"/>
      <point x="457" y="979"/>
      <point x="567" y="881"/>
      <point x="662" y="881" type="qcurve" smooth="yes"/>
      <point x="756" y="881"/>
      <point x="866" y="979"/>
    </contour>
  </outline>
</glyph>
<glyph name="AE" format="1">
  <advance width="2209"/>
  <unicode hex="00C6"/>
  <outline>
    <contour>
      <point x="282" y="353" type="line"/>
      <point x="1200" y="353" type="line"/>
      <point x="1200" y="619" type="line"/>
      <point x="407" y="619" type="line"/>
    </contour>
    <contour>
      <point x="1019" y="0" type="line"/>
      <point x="2141" y="0" type="line"/>
      <point x="2141" y="270" type="line"/>
      <point x="1366" y="270" type="line"/>
      <point x="1366" y="614" type="line"/>
      <point x="2022" y="614" type="line"/>
      <point x="2022" y="884" type="line"/>
      <point x="1366" y="884" type="line"/>
      <point x="1366" y="1185" type="line"/>
      <point x="2129" y="1185" type="line"/>
      <point x="2129" y="1456" type="line"/>
      <point x="899" y="1456" type="line"/>
      <point x="-145" y="0" type="line"/>
      <point x="235" y="0" type="line"/>
      <point x="1019" y="1068" type="line"/>
    </contour>
  </outline>
</glyph>
<glyph name="Eth" format="1">
  <advance width="1703"/>
  <unicode hex="00D0"/>
  <outline>
    <contour>
      <point x="192" y="0" type="line"/>
      <point x="740" y="0" type="line" smooth="yes"/>
      <point x="1117" y="0"/>
      <point x="1588" y="372"/>
      <point x="1588" y="688" type="qcurve" smooth="yes"/>
      <point x="1588" y="767" type="line" smooth="yes"/>
      <point x="1588" y="1083"/>
      <point x="1120" y="1456"/>
      <point x="761" y="1456" type="qcurve" smooth="yes"/>
      <point x="192" y="1456" type="line"/>
    </contour>
    <contour>
      <point x="544" y="270" type="line"/>
      <point x="544" y="1185" type="line"/>
      <point x="761" y="1185" type="line" smooth="yes"/>
      <point x="986" y="1185"/>
      <point x="1238" y="969"/>
      <point x="1238" y="769" type="qcurve" smooth="yes"/>
      <point x="1238" y="688" type="line" smooth="yes"/>
      <point x="1238" y="497"/>
      <point x="984" y="270"/>
      <point x="740" y="270" type="qcurve" smooth="yes"/>
    </contour>
    <contour>
      <point x="42" y="861" type="line"/>
      <point x="42" y="597" type="line"/>
      <point x="936" y="597" type="line"/>
      <point x="936" y="861" type="line"/>
    </contour>
  </outline>
</glyph>
<glyph name="multiply" format="1">
  <advance width="1463"/>
  <unicode hex="00D7"/>
  <outline>
    <contour>
      <point x="85" y="351" type="line"/>
      <point x="317" y="168" type="line"/>
      <point x="1373" y="941" type="line"/>
      <point x="1142" y="1126" type="line"/>
    </contour>
    <contour>
      <point x="88" y="942" type="line"/>
      <point x="1144" y="169" type="line"/>
      <point x="1378" y="353" type="line"/>
      <point x="322" y="1128" type="line"/>
    </contour>
  </outline>
</glyph>
<glyph name="Oslash" format="1">
  <advance width="1786"/>
  <unicode hex="00D8"/>
  <outline>
    <contour>
      <point x="103" y="686" type="line" smooth="yes"/>
      <point x="103" y="357"/>
      <point x="547" y="-27"/>
      <point x="889" y="-27" type="qcurve" smooth="yes"/>
      <point x="1234" y="-27"/>
      <point x="1671" y="361"/>
      <point x="1671" y="686" type="qcurve" smooth="yes"/>
      <point x="1671" y="770" type="line" smooth="yes"/>
      <point x="1671" y="1097"/>
      <point x="1233" y="1483"/>
      <point x="886" y="1483" type="qcurve" smooth="yes"/>
      <point x="550" y="1483"/>
      <point x="103" y="1094"/>
      <point x="103" y="770" type="qcurve" smooth="yes"/>
    </contour>
    <contour>
      <point x="458" y="686" type="qcurve" smooth="yes"/>
      <point x="458" y="772" type="line" smooth="yes"/>
      <point x="458" y="982"/>
      <point x="697" y="1207"/>
      <point x="886" y="1207" type="qcurve" smooth="yes"/>
      <point x="1083" y="1207"/>
      <point x="1315" y="980"/>
      <point x="1315" y="772" type="qcurve" smooth="yes"/>
      <point x="1315" y="686" type="line" smooth="yes"/>
      <point x="1315" y="473"/>
      <point x="1088" y="248"/>
      <point x="889" y="248" type="qcurve" smooth="yes"/>
      <point x="701" y="248"/>
      <point x="458" y="476"/>
    </contour>
    <contour>
      <point x="24" y="-76" type="line"/>
      <point x="417" y="-76" type="line"/>
      <point x="614" y="161" type="line"/>
      <point x="616" y="183" type="line"/>
      <point x="1055" y="709" type="line"/>
      <point x="780" y="845" type="line"/>
      <point x="394" y="363" type="line"/>
      <point x="366" y="353" type="line"/>
    </contour>
    <contour>
      <point x="1339" y="1520" type="line"/>
      <point x="1148" y="1289" type="line"/>
      <point x="1148" y="1269" type="line"/>
      <point x="708" y="744" type="line"/>
      <point x="982" y="609" type="line"/>
      <point x="1402" y="1124" type="line"/>
      <point x="1424" y="1138" type="line"/>
      <point x="1728" y="1520" type="line"/>
    </contour>
  </outline>
</glyph>
<glyph name="Thorn" format="1">
  <advance width="1492"/>
  <unicode hex="00DE"/>
  <outline>
    <contour>
      <point x="522" y="265" type="line"/>
      <point x="794" y="265" type="line" smooth="yes"/>
      <point x="1098" y="264"/>
      <point x="1444" y="517"/>
      <point x="1444" y="739" type="qcurve" smooth="yes"/>
      <point x="1444" y="945"/>
      <point x="1100" y="1199"/>
      <point x="794" y="1199" type="qcurve" smooth="yes"/>
      <point x="522" y="1199" type="line"/>
      <point x="522" y="1456" type="line"/>
      <point x="170" y="1456" type="line"/>
      <point x="170" y="0" type="line"/>
      <point x="522" y="0" type="line"/>
    </contour>
    <contour>
      <point x="521" y="535" type="line"/>
      <point x="521" y="929" type="line"/>
      <point x="794" y="929" type="line" smooth="yes"/>
      <point x="958" y="928"/>
      <point x="1092" y="813"/>
      <point x="1092" y="738" type="qcurve" smooth="yes"/>
      <point x="1092" y="653"/>
      <point x="958" y="535"/>
      <point x="794" y="535" type="qcurve" smooth="yes"/>
    </contour>
  </outline>
</glyph>
<glyph name="divide" format="1">
  <advance width="1520"/>
  <unicode hex="00F7"/>
  <outline>
    <contour>
      <point x="86" y="516" type="line"/>
      <point x="1434" y="516" type="line"/>
      <point x="1434" y="794" type="line"/>
      <point x="86" y="794" type="line"/>
    </contour>
    <contour>
      <point x="548" y="990" type="qcurve" smooth="yes"/>
      <point x="548" y="914"/>
      <point x="663" y="819"/>
      <point x="760" y="819" type="qcurve" smooth="yes"/>
      <point x="855" y="819"/>
      <point x="972" y="914"/>
      <point x="972" y="990" type="qcurve" smooth="yes"/>
      <point x="972" y="1068"/>
      <point x="855" y="1164"/>
      <point x="760" y="1164" type="qcurve" smooth="yes"/>
      <point x="662" y="1164"/>
      <point x="548" y="1067"/>
    </contour>
    <contour>
      <point x="548" y="322" type="qcurve" smooth="yes"/>
      <point x="548" y="246"/>
      <point x="663" y="150"/>
      <point x="760" y="150" type="qcurve" smooth="yes"/>
      <point x="855" y="150"/>
      <point x="972" y="245"/>
      <point x="972" y="322" type="qcurve" smooth="yes"/>
      <point x="972" y="399"/>
      <point x="855" y="496"/>
      <point x="760" y="496" type="qcurve" smooth="yes"/>
      <point x="662" y="496"/>
      <point x="548" y="398"/>
    </contour>
  </outline>
</glyph>
<glyph name="oslash" format="1">
  <advance width="1511"/>
  <unicode hex="00F8"/>
  <outline>
    <contour>
      <point x="85" y="511" type="line" smooth="yes"/>
      <point x="85" y="272"/>
      <point x="456" y="-26"/>
      <point x="757" y="-26" type="qcurve" smooth="yes"/>
      <point x="1056" y="-26"/>
      <point x="1426" y="272"/>
      <point x="1426" y="511" type="qcurve" smooth="yes"/>
      <point x="1426" y="540" type="line" smooth="yes"/>
      <point x="1426" y="784"/>
      <point x="1064" y="1078"/>
      <point x="754" y="1078" type="qcurve" smooth="yes"/>
      <point x="456" y="1078"/>
      <point x="85" y="779"/>
      <point x="85" y="540" type="qcurve" smooth="yes"/>
    </contour>
    <contour>
      <point x="434" y="540" type="line" smooth="yes"/>
      <point x="434" y="654"/>
      <point x="592" y="813"/>
      <point x="754" y="813" type="qcurve" smooth="yes"/>
      <point x="918" y="813"/>
      <point x="1077" y="654"/>
      <point x="1077" y="540" type="qcurve" smooth="yes"/>
      <point x="1077" y="511" type="line" smooth="yes"/>
      <point x="1077" y="396"/>
      <point x="918" y="239"/>
      <point x="757" y="239" type="qcurve" smooth="yes"/>
      <point x="592" y="239"/>
      <point x="434" y="396"/>
      <point x="434" y="511" type="qcurve" smooth="yes"/>
    </contour>
    <contour>
      <point x="914" y="545" type="line"/>
      <point x="653" y="642" type="line"/>
      <point x="358" y="237" type="line"/>
      <point x="332" y="217" type="line"/>
      <point x="109" y="-108" type="line"/>
      <point x="452" y="-108" type="line"/>
      <point x="605" y="108" type="line"/>
      <point x="607" y="127" type="line"/>
    </contour>
    <contour>
      <point x="1384" y="1182" type="line"/>
      <point x="1041" y="1182" type="line"/>
      <point x="876" y="950" type="line"/>
      <point x="876" y="933" type="line"/>
      <point x="588" y="535" type="line"/>
      <point x="848" y="438" type="line"/>
      <point x="1119" y="815" type="line"/>
      <point x="1145" y="834" type="line"/>
    </contour>
  </outline>
</glyph>
<glyph name="thorn" format="1">
  <advance width="1168"/>
  <unicode hex="00FE"/>
  <outline>
    <contour>
      <point x="148" y="-382" type="line"/>
      <point x="333" y="-382" type="line"/>
      <point x="333" y="149" type="line"/>
      <point x="395" y="65"/>
      <point x="579" y="-14"/>
      <point x="662" y="-14" type="qcurve" smooth="yes"/>
      <point x="846" y="-14"/>
      <point x="1083" y="291"/>
      <point x="1083" y="549" type="qcurve" smooth="yes"/>
      <point x="1083" y="568" type="line" smooth="yes"/>
      <point x="1083" y="830"/>
      <point x="847" y="1119"/>
      <point x="660" y="1119" type="qcurve" smooth="yes"/>
      <point x="580" y="1119"/>
      <point x="397" y="1039"/>
      <point x="334" y="961" type="qcurve"/>
      <point x="334" y="1536" type="line"/>
      <point x="148" y="1536" type="line"/>
    </contour>
    <contour>
      <point x="334" y="423" type="qcurve"/>
      <point x="334" y="695" type="line"/>
      <point x="360" y="760"/>
      <point x="477" y="850"/>
      <point x="614" y="850" type="qcurve" smooth="yes"/>
      <point x="784" y="850"/>
      <point x="897" y="666"/>
      <point x="897" y="568" type="qcurve" smooth="yes"/>
      <point x="897" y="549" type="line" smooth="yes"/>
      <point x="897" y="445"/>
      <point x="778" y="256"/>
      <point x="616" y="256" type="qcurve" smooth="yes"/>
      <point x="481" y="256"/>
      <point x="363" y="353"/>
    </contour>
  </outline>
</glyph>
<glyph name="OE" format="1">
  <advance width="2351"/>
  <unicode hex="0152"/>
  <outline>
    <contour>
      <point x="1160" y="0" type="line"/>
      <point x="2283" y="0" type="line"/>
      <point x="2283" y="270" type="line"/>
      <point x="1507" y="270" type="line"/>
      <point x="1507" y="614" type="line"/>
      <point x="2163" y="614" type="line"/>
      <point x="2163" y="884" type="line"/>
      <point x="1507" y="884" type="line"/>
      <point x="1507" y="1185" type="line"/>
      <point x="2271" y="1185" type="line"/>
      <point x="2271" y="1456" type="line"/>
      <point x="1160" y="1456" type="line"/>
    </contour>
    <contour>
      <point x="115" y="686" type="line" smooth="yes"/>
      <point x="115" y="364"/>
      <point x="546" y="-18"/>
      <point x="854" y="-18" type="qcurve" smooth="yes"/>
      <point x="1014" y="-18"/>
      <point x="1227" y="52"/>
      <point x="1331" y="144" type="qcurve"/>
      <point x="1331" y="483" type="line"/>
      <point x="1167" y="317"/>
      <point x="1007" y="257"/>
      <point x="875" y="257" type="qcurve" smooth="yes"/>
      <point x="713" y="257"/>
      <point x="470" y="476"/>
      <point x="470" y="686" type="qcurve" smooth="yes"/>
      <point x="470" y="772" type="line" smooth="yes"/>
      <point x="470" y="982"/>
      <point x="709" y="1207"/>
      <point x="898" y="1207" type="qcurve" smooth="yes"/>
      <point x="1006" y="1207"/>
      <point x="1169" y="1143"/>
      <point x="1337" y="940" type="qcurve"/>
      <point x="1337" y="1358" type="line"/>
      <point x="1232" y="1420"/>
      <point x="1013" y="1483"/>
      <point x="898" y="1483" type="qcurve" smooth="yes"/>
      <point x="562" y="1483"/>
      <point x="115" y="1094"/>
      <point x="115" y="770" type="qcurve" smooth="yes"/>
    </contour>
  </outline>
</glyph>
<glyph name="circumflex" format="1">
  <advance width="1290"/>
  <unicode hex="02C6"/>
  <outline>
    <contour>
      <point x="759" y="1405" type="line"/>
      <point x="529" y="1405" type="line"/>
      <point x="190" y="1114" type="line"/>
      <point x="190" y="1007" type="line"/>
      <point x="467" y="1007" type="line"/>
      <point x="644" y="1140" type="line"/>
      <point x="821" y="1007" type="line"/>
      <point x="1100" y="1007" type="line"/>
      <point x="1100" y="1114" type="line"/>
    </contour>
  </outline>
</glyph>
<glyph name="ring" format="1">
  <advance width="1251"/>
  <unicode hex="02DA"/>
  <outline>
    <contour>
      <point x="272" y="1254" type="qcurve" smooth="yes"/>
      <point x="272" y="1134"/>
      <point x="484" y="989"/>
      <point x="625" y="989" type="qcurve" smooth="yes"/>
      <point x="767" y="989"/>
      <point x="979" y="1134"/>
      <point x="979" y="1254" type="qcurve" smooth="yes"/>
      <point x="979" y="1371"/>
      <point x="767" y="1522"/>
      <point x="625" y="1522" type="qcurve" smooth="yes"/>
      <point x="483" y="1522"/>
      <point x="272" y="1371"/>
    </contour>
    <contour>
      <point x="539" y="1254" type="qcurve" smooth="yes"/>
      <point x="539" y="1262"/>
      <point x="582" y="1291"/>
      <point x="625" y="1291" type="qcurve" smooth="yes"/>
      <point x="669" y="1291"/>
      <point x="712" y="1262"/>
      <point x="712" y="1254" type="qcurve" smooth="yes"/>
      <point x="712" y="1246"/>
      <point x="669" y="1220"/>
      <point x="625" y="1220" type="qcurve" smooth="yes"/>
      <point x="582" y="1220"/>
      <point x="539" y="1248"/>
    </contour>
  </outline>
</glyph>
<glyph name="tilde" format="1">
  <advance width="1305"/>
  <unicode hex="02DC"/>
  <outline>
    <contour>
      <point x="879" y="1374" type="line"/>
      <point x="879" y="1296"/>
      <point x="844" y="1273"/>
      <point x="812" y="1273" type="qcurve" smooth="yes"/>
      <point x="730" y="1273"/>
      <point x="601" y="1356"/>
      <point x="480" y="1356" type="qcurve" smooth="yes"/>
      <point x="349" y="1356"/>
      <point x="158" y="1201"/>
      <point x="158" y="1010" type="qcurve"/>
      <point x="426" y="1000" type="line"/>
      <point x="426" y="1077"/>
      <point x="459" y="1099"/>
      <point x="492" y="1099" type="qcurve" smooth="yes"/>
      <point x="573" y="1099"/>
      <point x="677" y="1016"/>
      <point x="823" y="1016" type="qcurve" smooth="yes"/>
      <point x="954" y="1016"/>
      <point x="1147" y="1166"/>
      <point x="1147" y="1357" type="qcurve"/>
    </contour>
  </outline>
</glyph>
<glyph name="Germandbls" format="1">
  <advance width="1661"/>
  <unicode hex="1E9E"/>
  <outline>
    <contour>
      <point x="1551" y="419" type="qcurve" smooth="yes"/>
      <point x="1551" y="473" type="line" smooth="yes"/>
      <point x="1551" y="639"/>
      <point x="1250" y="838"/>
      <point x="1087" y="858" type="qcurve"/>
      <point x="1087" y="778" type="line"/>
      <point x="1436" y="994" type="line"/>
      <point x="1436" y="1041" type="line" smooth="yes"/>
      <point x="1436" y="1219"/>
      <point x="1139" y="1483"/>
      <point x="846" y="1483" type="qcurve" smooth="yes"/>
      <point x="565" y="1483"/>
      <point x="169" y="1237"/>
      <point x="169" y="1006" type="qcurve" smooth="yes"/>
      <point x="169" y="0" type="line"/>
      <point x="521" y="0" type="line"/>
      <point x="521" y="1017" type="line" smooth="yes"/>
      <point x="521" y="1119"/>
      <point x="674" y="1206"/>
      <point x="835" y="1206" type="qcurve" smooth="yes"/>
      <point x="960" y="1206"/>
      <point x="1073" y="1133"/>
      <point x="1078" y="1105" type="qcurve"/>
      <point x="697" y="848" type="line"/>
      <point x="777" y="636" type="line"/>
      <point x="1043" y="599"/>
      <point x="1198" y="508"/>
      <point x="1198" y="457" type="qcurve" smooth="yes"/>
      <point x="1198" y="408" type="line" smooth="yes"/>
      <point x="1198" y="346"/>
      <point x="1028" y="253"/>
      <point x="859" y="253" type="qcurve" smooth="yes"/>
      <point x="821" y="253"/>
      <point x="712" y="258"/>
      <point x="626" y="272" type="qcurve"/>
      <point x="573" y="2" type="line"/>
      <point x="684" y="-14"/>
      <point x="827" y="-20"/>
      <point x="873" y="-20" type="qcurve" smooth="yes"/>
      <point x="1166" y="-20"/>
      <point x="1551" y="215"/>
    </contour>
  </outline>
</glyph>
<glyph name="endash" format="1">
  <advance width="1717"/>
  <unicode hex="2013"/>
  <outline>
    <contour>
      <point x="124" y="470" type="line"/>
      <point x="1593" y="470" type="line"/>
      <point x="1593" y="753" type="line"/>
      <point x="124" y="753" type="line"/>
    </contour>
  </outline>
</glyph>
<glyph name="emdash" format="1">
  <advance width="2054"/>
  <unicode hex="2014"/>
  <outline>
    <contour>
      <point x="80" y="470" type="line"/>
      <point x="1974" y="470" type="line"/>
      <point x="1974" y="753" type="line"/>
      <point x="80" y="753" type="line"/>
    </contour>
  </outline>
</glyph>
<glyph name="quoteleft" format="1">
  <advance width="594"/>
  <unicode hex="2018"/>
  <outline>
    <contour>
      <point x="126" y="938" type="line"/>
      <point x="465" y="938" type="line"/>
      <point x="465" y="1112" type="line" smooth="yes"/>
      <point x="465" y="1160"/>
      <point x="533" y="1267"/>
      <point x="634" y="1381" type="qcurve"/>
      <point x="395" y="1497" type="line"/>
      <point x="250" y="1411"/>
      <point x="126" y="1212"/>
      <point x="126" y="1110" type="qcurve" smooth="yes"/>
    </contour>
  </outline>
</glyph>
<glyph name="quoteright" format="1">
  <advance width="595"/>
  <unicode hex="2019"/>
  <outline>
    <contour>
      <point x="42" y="961" type="qcurve"/>
      <point x="282" y="845" type="line"/>
      <point x="427" y="932"/>
      <point x="551" y="1131"/>
      <point x="551" y="1233" type="qcurve" smooth="yes"/>
      <point x="551" y="1405" type="line"/>
      <point x="212" y="1405" type="line"/>
      <point x="212" y="1230" type="line" smooth="yes"/>
      <point x="212" y="1183"/>
      <point x="144" y="1076"/>
    </contour>
  </outline>
</glyph>
<glyph name="quotesinglbase" format="1">
  <advance width="595"/>
  <unicode hex="201A"/>
  <outline>
    <contour>
      <point x="42" y="-119" type="qcurve"/>
      <point x="282" y="-235" type="line"/>
      <point x="427" y="-148"/>
      <point x="551" y="51"/>
      <point x="551" y="153" type="qcurve" smooth="yes"/>
      <point x="551" y="325" type="line"/>
      <point x="212" y="325" type="line"/>
      <point x="212" y="150" type="line" smooth="yes"/>
      <point x="212" y="103"/>
      <point x="144" y="-4"/>
    </contour>
  </outline>
</glyph>
<glyph name="quotedblleft" format="1">
  <advance width="1089"/>
  <unicode hex="201C"/>
  <outline>
    <contour>
      <point x="126" y="938" type="line"/>
      <point x="465" y="938" type="line"/>
      <point x="465" y="1112" type="line" smooth="yes"/>
      <point x="465" y="1160"/>
      <point x="533" y="1267"/>
      <point x="634" y="1381" type="qcurve"/>
      <point x="395" y="1497" type="line"/>
      <point x="250" y="1411"/>
      <point x="126" y="1212"/>
      <point x="126" y="1110" type="qcurve" smooth="yes"/>
    </contour>
    <contour>
      <point x="621" y="938" type="line"/>
      <point x="960" y="938" type="line"/>
      <point x="960" y="1112" type="line" smooth="yes"/>
      <point x="960" y="1160"/>
      <point x="1028" y="1267"/>
      <point x="1129" y="1381" type="qcurve"/>
      <point x="889" y="1497" type="line"/>
      <point x="745" y="1411"/>
      <point x="621" y="1212"/>
      <point x="621" y="1110" type="qcurve" smooth="yes"/>
    </contour>
  </outline>
</glyph>
<glyph name="quotedblright" format="1">
  <advance width="1090"/>
  <unicode hex="201D"/>
  <outline>
    <contour>
      <point x="42" y="961" type="qcurve"/>
      <point x="282" y="845" type="line"/>
      <point x="427" y="932"/>
      <point x="551" y="1131"/>
      <point x="551" y="1233" type="qcurve" smooth="yes"/>
      <point x="551" y="1405" type="line"/>
      <point x="212" y="1405" type="line"/>
      <point x="212" y="1230" type="line" smooth="yes"/>
      <point x="212" y="1183"/>
      <point x="144" y="1076"/>
    </contour>
    <contour>
      <point x="537" y="961" type="qcurve"/>
      <point x="777" y="845" type="line"/>
      <point x="921" y="932"/>
      <point x="1046" y="1131"/>
      <point x="1046" y="1233" type="qcurve" smooth="yes"/>
      <point x="1046" y="1405" type="line"/>
      <point x="707" y="1405" type="line"/>
      <point x="707" y="1230" type="line" smooth="yes"/>
      <point x="707" y="1183"/>
      <point x="639" y="1076"/>
    </contour>
  </outline>
</glyph>
<glyph name="quotedblbase" format="1">
  <advance width="1090"/>
  <unicode hex="201E"/>
  <outline>
    <contour>
      <point x="42" y="-119" type="qcurve"/>
      <point x="282" y="-235" type="line"/>
      <point x="427" y="-148"/>
      <point x="551" y="51"/>
      <point x="551" y="153" type="qcurve" smooth="yes"/>
      <point x="551" y="325" type="line"/>
      <point x="212" y="325" type="line"/>
      <point x="212" y="150" type="line" smooth="yes"/>
      <point x="212" y="103"/>
      <point x="144" y="-4"/>
    </contour>
    <contour>
      <point x="537" y="-119" type="qcurve"/>
      <point x="777" y="-235" type="line"/>
      <point x="921" y="-148"/>
      <point x="1046" y="51"/>
      <point x="1046" y="153" type="qcurve" smooth="yes"/>
      <point x="1046" y="325" type="line"/>
      <point x="707" y="325" type="line"/>
      <point x="707" y="150" type="line" smooth="yes"/>
      <point x="707" y="103"/>
      <point x="639" y="-4"/>
    </contour>
  </outline>
</glyph>
<glyph name="dagger" format="1">
  <advance width="1426"/>
  <unicode hex="2020"/>
  <outline>
    <contour>
      <point x="1356" y="1153" type="line"/>
      <point x="711" y="1132" type="line"/>
      <point x="70" y="1153" type="line"/>
      <point x="70" y="846" type="line"/>
      <point x="713" y="867" type="line"/>
      <point x="1356" y="846" type="line"/>
    </contour>
    <contour>
      <point x="824" y="-204" type="line"/>
      <point x="888" y="542" type="line"/>
      <point x="852" y="994" type="line"/>
      <point x="905" y="1511" type="line"/>
      <point x="520" y="1511" type="line"/>
      <point x="572" y="994" type="line"/>
      <point x="537" y="541" type="line"/>
      <point x="599" y="-207" type="line"/>
    </contour>
  </outline>
</glyph>
<glyph name="bullet" format="1">
  <advance width="971"/>
  <unicode hex="2022"/>
  <outline>
    <contour>
      <point x="164" y="706" type="line" smooth="yes"/>
      <point x="164" y="597"/>
      <point x="353" y="468"/>
      <point x="486" y="468" type="qcurve" smooth="yes"/>
      <point x="619" y="468"/>
      <point x="807" y="597"/>
      <point x="807" y="706" type="qcurve" smooth="yes"/>
      <point x="807" y="742" type="line" smooth="yes"/>
      <point x="807" y="850"/>
      <point x="619" y="981"/>
      <point x="484" y="981" type="qcurve" smooth="yes"/>
      <point x="353" y="981"/>
      <point x="164" y="851"/>
      <point x="164" y="742" type="qcurve" smooth="yes"/>
    </contour>
  </outline>
</glyph>
<glyph name="ellipsis" format="1">
  <advance width="2190"/>
  <unicode hex="2026"/>
  <outline>
    <contour>
      <point x="879" y="155" type="qcurve" smooth="yes"/>
      <point x="879" y="78"/>
      <point x="998" y="-19"/>
      <point x="1096" y="-19" type="qcurve" smooth="yes"/>
      <point x="1193" y="-19"/>
      <point x="1312" y="78"/>
      <point x="1312" y="155" type="qcurve" smooth="yes"/>
      <point x="1312" y="233"/>
      <point x="1193" y="329"/>
      <point x="1096" y="329" type="qcurve" smooth="yes"/>
      <point x="998" y="329"/>
      <point x="879" y="233"/>
    </contour>
    <contour>
      <point x="1596" y="155" type="qcurve" smooth="yes"/>
      <point x="1596" y="78"/>
      <point x="1715" y="-19"/>
      <point x="1812" y="-19" type="qcurve" smooth="yes"/>
      <point x="1910" y="-19"/>
      <point x="2029" y="78"/>
      <point x="2029" y="155" type="qcurve" smooth="yes"/>
      <point x="2029" y="233"/>
      <point x="1910" y="329"/>
      <point x="1812" y="329" type="qcurve" smooth="yes"/>
      <point x="1715" y="329"/>
      <point x="1596" y="233"/>
    </contour>
    <contour>
      <point x="161" y="155" type="qcurve" smooth="yes"/>
      <point x="161" y="78"/>
      <point x="280" y="-19"/>
      <point x="378" y="-19" type="qcurve" smooth="yes"/>
      <point x="475" y="-19"/>
      <point x="594" y="78"/>
      <point x="594" y="155" type="qcurve" smooth="yes"/>
      <point x="594" y="233"/>
      <point x="475" y="329"/>
      <point x="378" y="329" type="qcurve" smooth="yes"/>
      <point x="280" y="329"/>
      <point x="161" y="233"/>
    </contour>
  </outline>
</glyph>
<glyph name="perthousand" format="1">
  <advance width="2884"/>
  <unicode hex="2030"/>
  <outline>
    <contour>
      <point x="72" y="960" type="line" smooth="yes"/>
      <point x="72" y="814"/>
      <point x="323" y="610"/>
      <point x="506" y="610" type="qcurve" smooth="yes"/>
      <point x="689" y="610"/>
      <point x="935" y="815"/>
      <point x="935" y="960" type="qcurve" smooth="yes"/>
      <point x="935" y="1131" type="line" smooth="yes"/>
      <point x="935" y="1277"/>
      <point x="689" y="1482"/>
      <point x="503" y="1482" type="qcurve" smooth="yes"/>
      <point x="321" y="1482"/>
      <point x="72" y="1277"/>
      <point x="72" y="1131" type="qcurve" smooth="yes"/>
    </contour>
    <contour>
      <point x="395" y="958" type="qcurve" smooth="yes"/>
      <point x="395" y="1132" type="line" smooth="yes"/>
      <point x="395" y="1159"/>
      <point x="452" y="1216"/>
      <point x="503" y="1216" type="qcurve" smooth="yes"/>
      <point x="554" y="1216"/>
      <point x="612" y="1159"/>
      <point x="612" y="1132" type="qcurve" smooth="yes"/>
      <point x="612" y="958" type="line" smooth="yes"/>
      <point x="612" y="933"/>
      <point x="558" y="876"/>
      <point x="506" y="876" type="qcurve" smooth="yes"/>
      <point x="453" y="876"/>
      <point x="395" y="933"/>
    </contour>
    <contour>
      <point x="1674" y="1373" type="line"/>
      <point x="1432" y="1503" type="line"/>
      <point x="296" y="67" type="line"/>
      <point x="537" y="-64" type="line"/>
    </contour>
    <contour>
      <point x="1079" y="329" type="line" smooth="yes"/>
      <point x="1079" y="185"/>
      <point x="1316" y="-21"/>
      <point x="1512" y="-21" type="qcurve" smooth="yes"/>
      <point x="1708" y="-21"/>
      <point x="1942" y="185"/>
      <point x="1942" y="329" type="qcurve" smooth="yes"/>
      <point x="1942" y="500" type="line" smooth="yes"/>
      <point x="1942" y="645"/>
      <point x="1708" y="852"/>
      <point x="1510" y="852" type="qcurve" smooth="yes"/>
      <point x="1315" y="852"/>
      <point x="1079" y="645"/>
      <point x="1079" y="500" type="qcurve" smooth="yes"/>
    </contour>
    <contour>
      <point x="1400" y="327" type="qcurve" smooth="yes"/>
      <point x="1400" y="502" type="line" smooth="yes"/>
      <point x="1400" y="530"/>
      <point x="1450" y="585"/>
      <point x="1510" y="585" type="qcurve" smooth="yes"/>
      <point x="1569" y="585"/>
      <point x="1619" y="530"/>
      <point x="1619" y="502" type="qcurve" smooth="yes"/>
      <point x="1619" y="327" type="line" smooth="yes"/>
      <point x="1619" y="299"/>
      <point x="1573" y="245"/>
      <point x="1512" y="245" type="qcurve" smooth="yes"/>
      <point x="1450" y="245"/>
      <point x="1400" y="301"/>
    </contour>
    <contour>
      <point x="1949" y="329" type="line" smooth="yes"/>
      <point x="1949" y="185"/>
      <point x="2186" y="-21"/>
      <point x="2382" y="-21" type="qcurve" smooth="yes"/>
      <point x="2578" y="-21"/>
      <point x="2812" y="185"/>
      <point x="2812" y="329" type="qcurve" smooth="yes"/>
      <point x="2812" y="500" type="line" smooth="yes"/>
      <point x="2812" y="645"/>
      <point x="2578" y="852"/>
      <point x="2380" y="852" type="qcurve" smooth="yes"/>
      <point x="2185" y="852"/>
      <point x="1949" y="645"/>
      <point x="1949" y="500" type="qcurve" smooth="yes"/>
    </contour>
    <contour>
      <point x="2271" y="327" type="qcurve" smooth="yes"/>
      <point x="2271" y="502" type="line" smooth="yes"/>
      <point x="2271" y="530"/>
      <point x="2320" y="585"/>
      <point x="2380" y="585" type="qcurve" smooth="yes"/>
      <point x="2440" y="585"/>
      <point x="2489" y="530"/>
      <point x="2489" y="502" type="qcurve" smooth="yes"/>
      <point x="2489" y="327" type="line" smooth="yes"/>
      <point x="2489" y="299"/>
      <point x="2443" y="245"/>
      <point x="2382" y="245" type="qcurve" smooth="yes"/>
      <point x="2320" y="245"/>
      <point x="2271" y="301"/>
    </contour>
  </outline>
</glyph>
<glyph name="guilsinglleft" format="1">
  <advance width="876"/>
  <unicode hex="2039"/>
  <outline>
    <contour>
      <point x="540" y="177" type="line"/>
      <point x="912" y="177" type="line"/>
      <point x="486" y="592" type="line"/>
      <point x="912" y="1006" type="line"/>
      <point x="541" y="1006" type="line"/>
      <point x="78" y="633" type="line"/>
      <point x="78" y="552" type="line"/>
    </contour>
  </outline>
</glyph>
<glyph name="guilsinglright" format="1">
  <advance width="876"/>
  <unicode hex="203A"/>
  <outline>
    <contour>
      <point x="-36" y="1006" type="line"/>
      <point x="390" y="592" type="line"/>
      <point x="-36" y="177" type="line"/>
      <point x="335" y="177" type="line"/>
      <point x="798" y="551" type="line"/>
      <point x="798" y="631" type="line"/>
      <point x="336" y="1006" type="line"/>
    </contour>
  </outline>
</glyph>
<glyph name="fraction" format="1">
  <advance width="1142"/>
  <unicode hex="2044"/>
  <outline>
    <contour>
      <point x="30" y="202" type="line"/>
      <point x="255" y="75" type="line"/>
      <point x="1112" y="1247" type="line"/>
      <point x="888" y="1374" type="line"/>
    </contour>
  </outline>
</glyph>
<glyph name="won" format="1">
  <advance width="1779"/>
  <unicode hex="20A9"/>
  <outline>
    <contour>
      <point x="400" y="0" type="line"/>
      <point x="714" y="0" type="line"/>
      <point x="928" y="480" type="line"/>
      <point x="943" y="509"/>
      <point x="949" y="548"/>
      <point x="946" y="519" type="qcurve"/>
      <point x="834" y="519" type="line"/>
      <point x="834" y="549"/>
      <point x="850" y="506"/>
      <point x="859" y="482" type="qcurve" smooth="yes"/>
      <point x="1055" y="0" type="line"/>
      <point x="1382" y="0" type="line"/>
      <point x="1693" y="1456" type="line"/>
      <point x="1357" y="1456" type="line"/>
      <point x="1134" y="378" type="line" smooth="yes"/>
      <point x="1126" y="342"/>
      <point x="1129" y="315"/>
      <point x="1133" y="359" type="qcurve"/>
      <point x="1238" y="359" type="line"/>
      <point x="1241" y="335"/>
      <point x="1225" y="367"/>
      <point x="1217" y="388" type="qcurve" smooth="yes"/>
      <point x="1036" y="820" type="line"/>
      <point x="746" y="820" type="line"/>
      <point x="568" y="379" type="line"/>
      <point x="559" y="361"/>
      <point x="550" y="332"/>
      <point x="553" y="359" type="qcurve"/>
      <point x="659" y="359" type="line"/>
      <point x="662" y="324"/>
      <point x="660" y="349"/>
      <point x="654" y="378" type="qcurve" smooth="yes"/>
      <point x="423" y="1456" type="line"/>
      <point x="86" y="1456" type="line"/>
    </contour>
    <contour>
      <point x="10" y="1058" type="line"/>
      <point x="1769" y="1058" type="line"/>
      <point x="1769" y="1323" type="line"/>
      <point x="10" y="1323" type="line"/>
    </contour>
    <contour>
      <point x="34" y="761" type="line"/>
      <point x="1745" y="761" type="line"/>
      <point x="1745" y="1025" type="line"/>
      <point x="34" y="1025" type="line"/>
    </contour>
  </outline>
</glyph>
<glyph name="Euro" format="1">
  <advance width="1471"/>
  <unicode hex="20AC"/>
  <outline>
    <contour>
      <point x="1165" y="991" type="line"/>
      <point x="25" y="991" type="line"/>
      <point x="25" y="728" type="line"/>
      <point x="1165" y="728" type="line"/>
    </contour>
    <contour>
      <point x="1165" y="698" type="line"/>
      <point x="25" y="698" type="line"/>
      <point x="25" y="436" type="line"/>
      <point x="1165" y="436" type="line"/>
    </contour>
    <contour>
      <point x="874" y="-18" type="qcurve" smooth="yes"/>
      <point x="1160" y="-18"/>
      <point x="1440" y="237"/>
      <point x="1440" y="408" type="qcurve" smooth="yes"/>
      <point x="1440" y="485" type="line"/>
      <point x="1095" y="485" type="line"/>
      <point x="1102" y="405" type="line" smooth="yes"/>
      <point x="1109" y="334"/>
      <point x="998" y="254"/>
      <point x="867" y="254" type="qcurve" smooth="yes"/>
      <point x="692" y="254"/>
      <point x="539" y="403"/>
      <point x="539" y="575" type="qcurve" smooth="yes"/>
      <point x="539" y="861" type="line" smooth="yes"/>
      <point x="539" y="1033"/>
      <point x="691" y="1185"/>
      <point x="849" y="1185" type="qcurve" smooth="yes"/>
      <point x="996" y="1185"/>
      <point x="1089" y="1104"/>
      <point x="1089" y="1028" type="qcurve" smooth="yes"/>
      <point x="1089" y="952" type="line"/>
      <point x="1428" y="952" type="line"/>
      <point x="1428" y="1029" type="line" smooth="yes"/>
      <point x="1428" y="1200"/>
      <point x="1148" y="1455"/>
      <point x="846" y="1455" type="qcurve" smooth="yes"/>
      <point x="541" y="1455"/>
      <point x="199" y="1151"/>
      <point x="199" y="859" type="qcurve" smooth="yes"/>
      <point x="199" y="575" type="line" smooth="yes"/>
      <point x="199" y="284"/>
      <point x="554" y="-18"/>
    </contour>
  </outline>
</glyph>
<glyph name="indianrupee" format="1">
  <advance width="1439"/>
  <unicode hex="20B9"/>
  <outline>
    <contour>
      <point x="1423" y="1131" type="line"/>
      <point x="164" y="1131" type="line"/>
      <point x="90" y="860" type="line"/>
      <point x="1329" y="860" type="line"/>
    </contour>
    <contour>
      <point x="51" y="1185" type="line"/>
      <point x="518" y="1185" type="line" smooth="yes"/>
      <point x="692" y="1185"/>
      <point x="831" y="1083"/>
      <point x="831" y="996" type="qcurve" smooth="yes"/>
      <point x="831" y="919"/>
      <point x="718" y="822"/>
      <point x="560" y="822" type="qcurve" smooth="yes"/>
      <point x="189" y="822" type="line"/>
      <point x="136" y="597" type="line"/>
      <point x="859" y="0" type="line"/>
      <point x="1213" y="0" type="line"/>
      <point x="1213" y="103" type="line"/>
      <point x="638" y="551" type="line"/>
      <point x="835" y="551"/>
      <point x="1170" y="796"/>
      <point x="1170" y="994" type="qcurve" smooth="yes"/>
      <point x="1170" y="1107"/>
      <point x="1081" y="1257"/>
      <point x="1174" y="1185" type="qcurve"/>
      <point x="1329" y="1185" type="line"/>
      <point x="1423" y="1456" type="line"/>
      <point x="147" y="1456" type="line"/>
    </contour>
  </outline>
</glyph>
<glyph name="numero" format="1">
  <advance width="2984"/>
  <unicode hex="2116"/>
  <outline>
    <contour>
      <point x="170" y="0" type="line"/>
      <point x="514" y="0" type="line"/>
      <point x="514" y="987" type="line" smooth="yes"/>
      <point x="514" y="999"/>
      <point x="519" y="1073"/>
      <point x="522" y="1029" type="qcurve"/>
      <point x="419" y="1029" type="line"/>
      <point x="414" y="1041"/>
      <point x="472" y="975"/>
      <point x="482" y="964" type="qcurve"/>
      <point x="1237" y="0" type="line"/>
      <point x="1561" y="0" type="line"/>
      <point x="1561" y="1456" type="line"/>
      <point x="1217" y="1456" type="line"/>
      <point x="1217" y="466" type="line" smooth="yes"/>
      <point x="1217" y="439"/>
      <point x="1221" y="371"/>
      <point x="1218" y="424" type="qcurve"/>
      <point x="1307" y="424" type="line"/>
      <point x="1313" y="411"/>
      <point x="1264" y="476"/>
      <point x="1252" y="489" type="qcurve"/>
      <point x="493" y="1456" type="line"/>
      <point x="170" y="1456" type="line"/>
    </contour>
    <contour>
      <point x="1606" y="942" type="line" smooth="yes"/>
      <point x="1606" y="715"/>
      <point x="1945" y="430"/>
      <point x="2236" y="430" type="qcurve" smooth="yes"/>
      <point x="2526" y="430"/>
      <point x="2868" y="715"/>
      <point x="2868" y="942" type="qcurve" smooth="yes"/>
      <point x="2868" y="959" type="line" smooth="yes"/>
      <point x="2868" y="1191"/>
      <point x="2534" y="1473"/>
      <point x="2234" y="1473" type="qcurve" smooth="yes"/>
      <point x="1944" y="1473"/>
      <point x="1606" y="1184"/>
      <point x="1606" y="959" type="qcurve" smooth="yes"/>
    </contour>
    <contour>
      <point x="1948" y="961" type="line" smooth="yes"/>
      <point x="1948" y="1066"/>
      <point x="2087" y="1208"/>
      <point x="2234" y="1208" type="qcurve" smooth="yes"/>
      <point x="2383" y="1208"/>
      <point x="2519" y="1066"/>
      <point x="2519" y="961" type="qcurve" smooth="yes"/>
      <point x="2519" y="943" type="line" smooth="yes"/>
      <point x="2519" y="836"/>
      <point x="2383" y="695"/>
      <point x="2236" y="695" type="qcurve" smooth="yes"/>
      <point x="2087" y="695"/>
      <point x="1948" y="836"/>
      <point x="1948" y="943" type="qcurve" smooth="yes"/>
    </contour>
    <contour>
      <point x="1652" y="118" type="line"/>
      <point x="2829" y="118" type="line"/>
      <point x="2829" y="396" type="line"/>
      <point x="1652" y="396" type="line"/>
    </contour>
  </outline>
</glyph>
<glyph name="trademark" format="1">
  <advance width="2043"/>
  <unicode hex="2122"/>
  <outline>
    <contour>
      <point x="1649" y="718" type="line"/>
      <point x="1933" y="718" type="line"/>
      <point x="1933" y="1405" type="line"/>
      <point x="1601" y="1405" type="line"/>
      <point x="1402" y="1064" type="line"/>
      <point x="1208" y="1405" type="line"/>
      <point x="866" y="1405" type="line"/>
      <point x="866" y="717" type="line"/>
      <point x="1138" y="717" type="line"/>
      <point x="1138" y="933" type="line"/>
      <point x="1269" y="717" type="line"/>
      <point x="1517" y="717" type="line"/>
      <point x="1649" y="934" type="line"/>
    </contour>
    <contour>
      <point x="888" y="1405" type="line"/>
      <point x="68" y="1405" type="line"/>
      <point x="68" y="1145" type="line"/>
      <point x="329" y="1145" type="line"/>
      <point x="329" y="717" type="line"/>
      <point x="638" y="717" type="line"/>
      <point x="638" y="1145" type="line"/>
      <point x="888" y="1145" type="line"/>
    </contour>
  </outline>
</glyph>
<glyph name="minus" format="1">
  <advance width="1500"/>
  <unicode hex="2212"/>
  <outline>
    <contour>
      <point x="128" y="514" type="line"/>
      <point x="1372" y="514" type="line"/>
      <point x="1372" y="797" type="line"/>
      <point x="128" y="797" type="line"/>
    </contour>
  </outline>
</glyph>
<glyph name="divisionslash" format="1">
  <advance width="972"/>
  <unicode hex="2215"/>
  <outline>
    <contour>
      <point x="-50" y="-125" type="line"/>
      <point x="261" y="-125" type="line"/>
      <point x="972" y="1456" type="line"/>
      <point x="662" y="1456" type="line"/>
    </contour>
  </outline>
</glyph>
<glyph name="bitcoin" format="1">
  <advance width="1481"/>
  <outline>
    <contour>
      <point x="199" y="0" type="line"/>
      <point x="789" y="0" type="line" smooth="yes"/>
      <point x="1064" y="0"/>
      <point x="1416" y="229"/>
      <point x="1416" y="447" type="qcurve" smooth="yes"/>
      <point x="1416" y="604"/>
      <point x="1199" y="797"/>
      <point x="1118" y="812" type="qcurve"/>
      <point x="1118" y="717" type="line"/>
      <point x="1204" y="738"/>
      <point x="1370" y="913"/>
      <point x="1370" y="1038" type="qcurve" smooth="yes"/>
      <point x="1370" y="1257"/>
      <point x="1029" y="1456"/>
      <point x="751" y="1456" type="qcurve" smooth="yes"/>
      <point x="199" y="1456" type="line"/>
    </contour>
    <contour>
      <point x="548" y="890" type="line"/>
      <point x="548" y="1185" type="line"/>
      <point x="795" y="1185" type="line" smooth="yes"/>
      <point x="920" y="1185"/>
      <point x="1022" y="1118"/>
      <point x="1022" y="1040" type="qcurve" smooth="yes"/>
      <point x="1022" y="970"/>
      <point x="906" y="890"/>
      <point x="801" y="890" type="qcurve" smooth="yes"/>
    </contour>
    <contour>
      <point x="548" y="270" type="line"/>
      <point x="548" y="622" type="line"/>
      <point x="837" y="622" type="line" smooth="yes"/>
      <point x="963" y="622"/>
      <point x="1068" y="530"/>
      <point x="1068" y="445" type="qcurve" smooth="yes"/>
      <point x="1068" y="365"/>
      <point x="947" y="270"/>
      <point x="828" y="270" type="qcurve" smooth="yes"/>
    </contour>
    <contour>
      <point x="881" y="337" type="line"/>
      <point x="881" y="600" type="line"/>
      <point x="440" y="600" type="line"/>
      <point x="377" y="605" type="line"/>
      <point x="42" y="605" type="line"/>
      <point x="42" y="334" type="line"/>
      <point x="379" y="334" type="line"/>
      <point x="435" y="337" type="line"/>
    </contour>
  </outline>
</glyph>
<glyph name="eight.pnum" format="1">
  <advance width="1408"/>
  <outline>
    <contour>
      <point x="90" y="439" type="qcurve" smooth="yes"/>
      <point x="90" y="218"/>
      <point x="446" y="-27"/>
      <point x="704" y="-27" type="qcurve" smooth="yes"/>
      <point x="961" y="-27"/>
      <point x="1318" y="218"/>
      <point x="1318" y="439" type="qcurve" smooth="yes"/>
      <point x="1318" y="583"/>
      <point x="1118" y="810"/>
      <point x="994" y="835" type="qcurve"/>
      <point x="994" y="754" type="line"/>
      <point x="1079" y="786"/>
      <point x="1230" y="958"/>
      <point x="1230" y="1071" type="qcurve" smooth="yes"/>
      <point x="1230" y="1265"/>
      <point x="920" y="1475"/>
      <point x="703" y="1475" type="qcurve" smooth="yes"/>
      <point x="487" y="1475"/>
      <point x="178" y="1265"/>
      <point x="178" y="1071" type="qcurve" smooth="yes"/>
      <point x="178" y="958"/>
      <point x="328" y="787"/>
      <point x="413" y="755" type="qcurve"/>
      <point x="413" y="837" type="line"/>
      <point x="293" y="812"/>
      <point x="90" y="585"/>
    </contour>
    <contour>
      <point x="511" y="1064" type="qcurve" smooth="yes"/>
      <point x="511" y="1129"/>
      <point x="614" y="1208"/>
      <point x="703" y="1208" type="qcurve" smooth="yes"/>
      <point x="793" y="1208"/>
      <point x="899" y="1124"/>
      <point x="899" y="1064" type="qcurve" smooth="yes"/>
      <point x="899" y="1000"/>
      <point x="794" y="920"/>
      <point x="704" y="920" type="qcurve" smooth="yes"/>
      <point x="613" y="920"/>
      <point x="511" y="1000"/>
    </contour>
    <contour>
      <point x="430" y="450" type="qcurve" smooth="yes"/>
      <point x="430" y="543"/>
      <point x="569" y="652"/>
      <point x="702" y="652" type="qcurve" smooth="yes"/>
      <point x="831" y="652"/>
      <point x="978" y="543"/>
      <point x="978" y="450" type="qcurve" smooth="yes"/>
      <point x="978" y="353"/>
      <point x="829" y="240"/>
      <point x="704" y="240" type="qcurve" smooth="yes"/>
      <point x="579" y="240"/>
      <point x="430" y="353"/>
    </contour>
  </outline>
</glyph>
<glyph name="five.pnum" format="1">
  <advance width="1330"/>
  <outline>
    <contour>
      <point x="40" y="467" type="line"/>
      <point x="40" y="402" type="line" smooth="yes"/>
      <point x="40" y="183"/>
      <point x="428" y="-27"/>
      <point x="676" y="-27" type="qcurve" smooth="yes"/>
      <point x="950" y="-27"/>
      <point x="1280" y="268"/>
      <point x="1280" y="487" type="qcurve" smooth="yes"/>
      <point x="1280" y="706"/>
      <point x="966" y="996"/>
      <point x="690" y="996" type="qcurve" smooth="yes"/>
      <point x="578" y="996"/>
      <point x="392" y="943"/>
      <point x="454" y="981" type="qcurve"/>
      <point x="483" y="1173" type="line"/>
      <point x="1197" y="1173" type="line"/>
      <point x="1197" y="1456" type="line"/>
      <point x="191" y="1456" type="line"/>
      <point x="93" y="692" type="line"/>
      <point x="327" y="601" type="line"/>
      <point x="423" y="675"/>
      <point x="547" y="719"/>
      <point x="664" y="719" type="qcurve" smooth="yes"/>
      <point x="794" y="719"/>
      <point x="938" y="598"/>
      <point x="938" y="485" type="qcurve" smooth="yes"/>
      <point x="938" y="367"/>
      <point x="799" y="238"/>
      <point x="657" y="238" type="qcurve" smooth="yes"/>
      <point x="530" y="238"/>
      <point x="381" y="324"/>
      <point x="381" y="402" type="qcurve" smooth="yes"/>
      <point x="381" y="467" type="line"/>
    </contour>
  </outline>
</glyph>
<glyph name="four.pnum" format="1">
  <advance width="1348"/>
  <outline>
    <contour>
      <point x="756" y="0" type="line"/>
      <point x="1098" y="0" type="line"/>
      <point x="1098" y="1456" type="line"/>
      <point x="820" y="1456" type="line"/>
      <point x="-23" y="513" type="line"/>
      <point x="-23" y="318" type="line"/>
      <point x="1340" y="318" type="line"/>
      <point x="1340" y="583" type="line"/>
      <point x="937" y="583" type="line"/>
      <point x="905" y="583" type="line"/>
      <point x="420" y="583" type="line"/>
      <point x="845" y="1049" type="line"/>
      <point x="756" y="1049" type="line"/>
      <point x="756" y="445" type="line"/>
      <point x="756" y="429" type="line"/>
    </contour>
  </outline>
</glyph>
<glyph name="nine.pnum" format="1">
  <advance width="1381"/>
  <outline>
    <contour>
      <point x="23" y="972" type="qcurve" smooth="yes"/>
      <point x="23" y="775"/>
      <point x="329" y="488"/>
      <point x="611" y="488" type="qcurve" smooth="yes"/>
      <point x="802" y="488"/>
      <point x="1063" y="647"/>
      <point x="1100" y="758" type="qcurve"/>
      <point x="1100" y="1798" type="line"/>
      <point x="955" y="872"/>
      <point x="775" y="756"/>
      <point x="646" y="756" type="qcurve" smooth="yes"/>
      <point x="515" y="756"/>
      <point x="367" y="877"/>
      <point x="367" y="980" type="qcurve" smooth="yes"/>
      <point x="367" y="1085"/>
      <point x="512" y="1211"/>
      <point x="651" y="1211" type="qcurve" smooth="yes"/>
      <point x="792" y="1211"/>
      <point x="968" y="1041"/>
      <point x="968" y="835" type="qcurve" smooth="yes"/>
      <point x="968" y="790" type="line" smooth="yes"/>
      <point x="968" y="468"/>
      <point x="624" y="243"/>
      <point x="364" y="243" type="qcurve" smooth="yes"/>
      <point x="265" y="243" type="line"/>
      <point x="265" y="-27" type="line"/>
      <point x="347" y="-27" type="line" smooth="yes"/>
      <point x="804" y="-27"/>
      <point x="1313" y="411"/>
      <point x="1313" y="786" type="qcurve" smooth="yes"/>
      <point x="1313" y="813" type="line" smooth="yes"/>
      <point x="1313" y="1181"/>
      <point x="906" y="1476"/>
      <point x="646" y="1476" type="qcurve" smooth="yes"/>
      <point x="366" y="1476"/>
      <point x="23" y="1179"/>
    </contour>
  </outline>
</glyph>
<glyph name="one.pnum" format="1">
  <advance width="1020"/>
  <outline>
    <contour>
      <point x="827" y="1463" type="line"/>
      <point x="721" y="1463" type="line"/>
      <point x="47" y="1262" type="line"/>
      <point x="47" y="978" type="line"/>
      <point x="478" y="1109" type="line"/>
      <point x="478" y="0" type="line"/>
      <point x="827" y="0" type="line"/>
    </contour>
  </outline>
</glyph>
<glyph name="seven.pnum" format="1">
  <advance width="1180"/>
  <outline>
    <contour>
      <point x="1180" y="1456" type="line"/>
      <point x="0" y="1456" type="line"/>
      <point x="0" y="1191" type="line"/>
      <point x="794" y="1191" type="line"/>
      <point x="145" y="0" type="line"/>
      <point x="505" y="0" type="line"/>
      <point x="1180" y="1280" type="line"/>
    </contour>
  </outline>
</glyph>
<glyph name="six.pnum" format="1">
  <advance width="1372"/>
  <outline>
    <contour>
      <point x="66" y="636" type="line" smooth="yes"/>
      <point x="66" y="279"/>
      <point x="454" y="-27"/>
      <point x="730" y="-27" type="qcurve" smooth="yes"/>
      <point x="1011" y="-27"/>
      <point x="1349" y="265"/>
      <point x="1349" y="469" type="qcurve" smooth="yes"/>
      <point x="1349" y="664"/>
      <point x="1047" y="944"/>
      <point x="765" y="944" type="qcurve" smooth="yes"/>
      <point x="577" y="944"/>
      <point x="302" y="799"/>
      <point x="235" y="666" type="qcurve"/>
      <point x="235" y="339" type="line"/>
      <point x="371" y="354" type="line"/>
      <point x="407" y="556"/>
      <point x="600" y="675"/>
      <point x="730" y="675" type="qcurve" smooth="yes"/>
      <point x="859" y="675"/>
      <point x="1005" y="562"/>
      <point x="1005" y="460" type="qcurve" smooth="yes"/>
      <point x="1005" y="359"/>
      <point x="865" y="238"/>
      <point x="726" y="238" type="qcurve" smooth="yes"/>
      <point x="582" y="238"/>
      <point x="413" y="393"/>
      <point x="413" y="568" type="qcurve" smooth="yes"/>
      <point x="413" y="659" type="line" smooth="yes"/>
      <point x="413" y="958"/>
      <point x="803" y="1195"/>
      <point x="1048" y="1195" type="qcurve" smooth="yes"/>
      <point x="1158" y="1195" type="line"/>
      <point x="1158" y="1476" type="line"/>
      <point x="1052" y="1476" type="line" smooth="yes"/>
      <point x="626" y="1476"/>
      <point x="66" y="1006"/>
      <point x="66" y="662" type="qcurve" smooth="yes"/>
    </contour>
  </outline>
</glyph>
<glyph name="three.pnum" format="1">
  <advance width="1344"/>
  <outline>
    <contour>
      <point x="39" y="485" type="line"/>
      <point x="39" y="416" type="line" smooth="yes"/>
      <point x="39" y="207"/>
      <point x="399" y="-27"/>
      <point x="659" y="-27" type="qcurve" smooth="yes"/>
      <point x="929" y="-27"/>
      <point x="1288" y="211"/>
      <point x="1288" y="432" type="qcurve" smooth="yes"/>
      <point x="1288" y="606"/>
      <point x="1046" y="798"/>
      <point x="931" y="763" type="qcurve"/>
      <point x="1074" y="758"/>
      <point x="1209" y="958"/>
      <point x="1209" y="1069" type="qcurve" smooth="yes"/>
      <point x="1209" y="1263"/>
      <point x="888" y="1477"/>
      <point x="644" y="1477" type="qcurve" smooth="yes"/>
      <point x="406" y="1477"/>
      <point x="93" y="1237"/>
      <point x="93" y="1062" type="qcurve" smooth="yes"/>
      <point x="93" y="991" type="line"/>
      <point x="429" y="991" type="line"/>
      <point x="429" y="1059" type="line" smooth="yes"/>
      <point x="429" y="1128"/>
      <point x="536" y="1209"/>
      <point x="644" y="1209" type="qcurve" smooth="yes"/>
      <point x="760" y="1209"/>
      <point x="869" y="1130"/>
      <point x="869" y="1048" type="qcurve" smooth="yes"/>
      <point x="869" y="969"/>
      <point x="750" y="890"/>
      <point x="601" y="890" type="qcurve" smooth="yes"/>
      <point x="412" y="890" type="line"/>
      <point x="412" y="622" type="line"/>
      <point x="619" y="622" type="line" smooth="yes"/>
      <point x="776" y="622"/>
      <point x="944" y="526"/>
      <point x="944" y="429" type="qcurve" smooth="yes"/>
      <point x="944" y="339"/>
      <point x="806" y="241"/>
      <point x="659" y="241" type="qcurve" smooth="yes"/>
      <point x="524" y="241"/>
      <point x="376" y="336"/>
      <point x="376" y="417" type="qcurve" smooth="yes"/>
      <point x="376" y="485" type="line"/>
    </contour>
  </outline>
</glyph>
<glyph name="two.pnum" format="1">
  <advance width="1281"/>
  <outline>
    <contour>
      <point x="53" y="0" type="line"/>
      <point x="1248" y="0" type="line"/>
      <point x="1248" y="265" type="line"/>
      <point x="530" y="265" type="line"/>
      <point x="882" y="567" type="line" smooth="yes"/>
      <point x="1007" y="676"/>
      <point x="1214" y="907"/>
      <point x="1214" y="1064" type="qcurve" smooth="yes"/>
      <point x="1214" y="1231"/>
      <point x="908" y="1474"/>
      <point x="637" y="1474" type="qcurve" smooth="yes"/>
      <point x="373" y="1474"/>
      <point x="41" y="1202"/>
      <point x="41" y="1008" type="qcurve" smooth="yes"/>
      <point x="41" y="939" type="line"/>
      <point x="385" y="939" type="line"/>
      <point x="385" y="1010" type="line" smooth="yes"/>
      <point x="385" y="1098"/>
      <point x="524" y="1209"/>
      <point x="637" y="1209" type="qcurve" smooth="yes"/>
      <point x="765" y="1209"/>
      <point x="873" y="1110"/>
      <point x="873" y="1042" type="qcurve" smooth="yes"/>
      <point x="873" y="974"/>
      <point x="753" y="843"/>
      <point x="637" y="738" type="qcurve" smooth="yes"/>
      <point x="53" y="212" type="line"/>
    </contour>
  </outline>
</glyph>
<glyph name="zero.pnum" format="1">
  <advance width="1447"/>
  <outline>
    <contour>
      <point x="112" y="465" type="line" smooth="yes"/>
      <point x="112" y="235"/>
      <point x="449" y="-27"/>
      <point x="725" y="-27" type="qcurve" smooth="yes"/>
      <point x="998" y="-27"/>
      <point x="1335" y="235"/>
      <point x="1335" y="465" type="qcurve" smooth="yes"/>
      <point x="1335" y="983" type="line" smooth="yes"/>
      <point x="1335" y="1212"/>
      <point x="999" y="1477"/>
      <point x="722" y="1477" type="qcurve" smooth="yes"/>
      <point x="448" y="1477"/>
      <point x="112" y="1212"/>
      <point x="112" y="983" type="qcurve" smooth="yes"/>
    </contour>
    <contour>
      <point x="466" y="454" type="qcurve" smooth="yes"/>
      <point x="466" y="994" type="line" smooth="yes"/>
      <point x="466" y="1069"/>
      <point x="573" y="1208"/>
      <point x="722" y="1208" type="qcurve" smooth="yes"/>
      <point x="873" y="1208"/>
      <point x="981" y="1074"/>
      <point x="981" y="994" type="qcurve" smooth="yes"/>
      <point x="981" y="454" type="line" smooth="yes"/>
      <point x="981" y="379"/>
      <point x="874" y="240"/>
      <point x="725" y="240" type="qcurve" smooth="yes"/>
      <point x="574" y="240"/>
      <point x="466" y="374"/>
    </contour>
  </outline>
</glyph>
